<svg width="73" height="72" viewBox="0 0 73 72" fill="none" xmlns="http://www.w3.org/2000/svg">
<rect x="0.5" width="72" height="72" rx="20" fill="#DFF1FF"/>
<mask id="mask0_4062_45338" style="mask-type:alpha" maskUnits="userSpaceOnUse" x="16" y="16" width="41" height="40">
<rect x="16.5" y="16" width="40" height="40" fill="#D9D9D9"/>
</mask>
<g mask="url(#mask0_4062_45338)">
<path d="M39.5695 51.5556C40.1065 51.5556 40.5625 51.3634 40.9375 50.9792C41.3125 50.5949 41.5 50.1343 41.5 49.5972C41.5 49.0602 41.3137 48.6042 40.941 48.2292C40.5683 47.8542 40.1065 47.6667 39.5555 47.6667C39.0278 47.6667 38.5718 47.853 38.1875 48.2257C37.8032 48.5984 37.6111 49.0602 37.6111 49.6111C37.6111 50.1389 37.8032 50.5949 38.1875 50.9792C38.5718 51.3634 39.0324 51.5556 39.5695 51.5556ZM50.125 34.3333C50.6621 34.3333 51.1181 34.1412 51.4931 33.7569C51.8681 33.3727 52.0556 32.912 52.0556 32.375C52.0556 31.8379 51.8692 31.3819 51.4965 31.0069C51.1238 30.6319 50.662 30.4444 50.1111 30.4444C49.5833 30.4444 49.1273 30.6308 48.743 31.0034C48.3588 31.3761 48.1667 31.8379 48.1667 32.3889C48.1667 32.9166 48.3588 33.3727 48.743 33.7569C49.1273 34.1412 49.588 34.3333 50.125 34.3333ZM33.4445 33.7777C33.838 33.7777 34.1678 33.6442 34.434 33.377C34.7002 33.1099 34.8333 32.7789 34.8333 32.384C34.8333 31.9891 34.7002 31.6597 34.434 31.3958C34.1678 31.1319 33.838 31 33.4445 31H27.8889C27.4954 31 27.1655 31.1336 26.8993 31.4007C26.6331 31.6678 26.5 31.9989 26.5 32.3937C26.5 32.7886 26.6331 33.118 26.8993 33.3819C27.1655 33.6458 27.4954 33.7777 27.8889 33.7777H33.4445ZM33.4445 41C33.838 41 34.1678 40.8664 34.434 40.5993C34.7002 40.3321 34.8333 40.0011 34.8333 39.6062C34.8333 39.2113 34.7002 38.882 34.434 38.6181C34.1678 38.3542 33.838 38.2222 33.4445 38.2222H27.8889C27.4954 38.2222 27.1655 38.3558 26.8993 38.6229C26.6331 38.8901 26.5 39.2211 26.5 39.616C26.5 40.0109 26.6331 40.3403 26.8993 40.6042C27.1655 40.868 27.4954 41 27.8889 41H33.4445ZM22.3889 49.3333C21.6389 49.3333 20.9884 49.0579 20.4375 48.5069C19.8866 47.956 19.6111 47.3056 19.6111 46.5556V25.4444C19.6111 24.6944 19.8866 24.0439 20.4375 23.493C20.9884 22.9421 21.6389 22.6667 22.3889 22.6667H50.6111C51.3611 22.6667 52.0116 22.9421 52.5625 23.493C53.1134 24.0439 53.3889 24.6944 53.3889 25.4444H22.3889V46.5556H32.0556V49.3333H22.3889ZM39.5523 54.3333C38.2397 54.3333 37.125 53.8742 36.2083 52.956C35.2917 52.0378 34.8333 50.9228 34.8333 49.6111C34.8333 48.5463 35.1458 47.6019 35.7708 46.7778C36.3958 45.9537 37.1944 45.3935 38.1667 45.0972V41C38.1667 40.6065 38.2998 40.2766 38.566 40.0104C38.8322 39.7442 39.162 39.6111 39.5555 39.6111H48.7222V36.9027C47.75 36.6065 46.9514 36.0463 46.3264 35.2222C45.7014 34.3981 45.3889 33.4537 45.3889 32.3889C45.3889 31.0771 45.8483 29.9622 46.7672 29.0439C47.686 28.1258 48.8017 27.6667 50.1144 27.6667C51.427 27.6667 52.5417 28.1258 53.4583 29.044C54.375 29.9622 54.8333 31.0771 54.8333 32.3889C54.8333 33.4537 54.5208 34.3981 53.8958 35.2222C53.2708 36.0463 52.4722 36.6065 51.5 36.9027V41C51.5 41.3935 51.3669 41.7234 51.1007 41.9896C50.8345 42.2558 50.5046 42.3889 50.1111 42.3889H40.9444V45.0972C41.9166 45.3935 42.7153 45.9537 43.3403 46.7778C43.9653 47.6019 44.2778 48.5463 44.2778 49.6111C44.2778 50.9228 43.8183 52.0378 42.8995 52.956C41.9807 53.8742 40.8649 54.3333 39.5523 54.3333Z" fill="#006AB7"/>
</g>
</svg>
