<svg width="76" height="75" viewBox="0 0 76 75" fill="none" xmlns="http://www.w3.org/2000/svg">
<rect x="0.75" width="75" height="75" rx="20.8333" fill="#F2F2F2"/>
<path d="M19.15 39.5403C19.979 49.5884 28.3967 57.4847 38.6587 57.4847C42.9203 57.4847 46.8638 56.1229 50.0779 53.8108M19.15 39.5403C19.1056 39.0024 19.083 38.4583 19.083 37.909C19.083 31.3592 22.2997 25.5607 27.2396 22.0071M19.15 39.5403H20.7143H23.9769C25.8295 39.5403 27.4417 38.5557 28.2727 37.1037C28.9216 35.9698 29.9664 34.8591 31.3178 34.8591H32.9491C35.2015 34.8591 37.0274 33.1126 37.0274 30.9582C37.0274 28.8037 35.2015 27.0572 32.9491 27.0572H32.1335C29.4306 27.0572 27.2396 24.9614 27.2396 22.3761V22.0071M27.2396 22.0071C30.4536 19.695 34.3972 18.3333 38.6587 18.3333C48.3585 18.3333 56.4105 25.388 57.9638 34.6464M57.9638 34.6464C58.1418 35.7074 58.2345 36.7974 58.2345 37.909C58.2345 44.4588 55.0177 50.2573 50.0779 53.8108M57.9638 34.6464H56.6031H53.3405C51.4879 34.6464 49.8758 35.6757 49.0448 37.1937C48.3959 38.3791 47.3511 39.5403 45.9996 39.5403H44.3683C42.116 39.5403 40.29 41.3662 40.29 43.6186C40.29 45.8709 42.116 47.6968 44.3683 47.6968H45.184C47.8868 47.6968 50.0779 49.8879 50.0779 52.5908V53.8108" stroke="#BEBCBA" stroke-width="3.26262"/>
</svg>
