<svg width="76" height="75" viewBox="0 0 76 75" fill="none" xmlns="http://www.w3.org/2000/svg">
<rect x="0.75" width="75" height="75" rx="20.8333" fill="#DEE1FF"/>
<path d="M48.5479 52.3282C48.5479 53.0728 49.1514 53.6763 49.8959 53.6763C50.6404 53.6763 51.244 53.0728 51.244 52.3282H48.5479ZM24.7986 52.3282C24.7986 53.0728 25.4021 53.6763 26.1466 53.6763C26.8911 53.6763 27.4947 53.0728 27.4947 52.3282H24.7986ZM53.7185 44.0759V42.7279C52.9795 42.7279 52.3783 43.3228 52.3705 44.0618C52.3628 44.8008 52.9515 45.4082 53.6903 45.4236L53.7185 44.0759ZM53.0422 30.3493C52.2977 30.3493 51.6942 30.9529 51.6942 31.6974C51.6942 32.4419 52.2977 33.0454 53.0422 33.0454V30.3493ZM59.7629 52.3282C59.7629 53.0728 60.3664 53.6763 61.1109 53.6763C61.8554 53.6763 62.459 53.0728 62.459 52.3282H59.7629ZM22.7804 44.0759L22.8086 45.4236C23.5474 45.4082 24.1361 44.8008 24.1284 44.0618C24.1206 43.3228 23.5194 42.7279 22.7804 42.7279V44.0759ZM23.4571 33.0454C24.2016 33.0454 24.8051 32.4419 24.8051 31.6974C24.8051 30.9529 24.2016 30.3493 23.4571 30.3493V33.0454ZM14.0404 52.3282C14.0404 53.0728 14.6439 53.6763 15.3884 53.6763C16.1329 53.6763 16.7364 53.0728 16.7364 52.3282H14.0404ZM45.5792 31.5684C45.5792 35.7364 42.1967 39.1175 38.0213 39.1175V41.8135C43.6832 41.8135 48.2753 37.2279 48.2753 31.5684H45.5792ZM38.0213 39.1175C33.8459 39.1175 30.4633 35.7364 30.4633 31.5684H27.7672C27.7672 37.2279 32.3594 41.8135 38.0213 41.8135V39.1175ZM30.4633 31.5684C30.4633 27.4005 33.8459 24.0194 38.0213 24.0194V21.3233C32.3594 21.3233 27.7672 25.909 27.7672 31.5684H30.4633ZM38.0213 24.0194C42.1967 24.0194 45.5792 27.4005 45.5792 31.5684H48.2753C48.2753 25.909 43.6832 21.3233 38.0213 21.3233V24.0194ZM27.4947 52.3282C27.4947 50.6689 27.4968 49.2011 27.6688 47.8855C27.8392 46.582 28.165 45.5379 28.7397 44.7067C29.8346 43.1232 32.211 41.8135 38.0213 41.8135V39.1175C31.9568 39.1175 28.3959 40.4634 26.5221 43.1734C25.6125 44.4889 25.1962 46.001 24.9955 47.536C24.7964 49.0588 24.7986 50.7118 24.7986 52.3282H27.4947ZM37.992 41.8132C43.8173 41.9397 46.2085 43.2445 47.3083 44.8112C47.8803 45.6261 48.2044 46.6446 48.3741 47.9242C48.5457 49.2181 48.5479 50.6681 48.5479 52.3282H51.244C51.244 50.7126 51.2462 49.0741 51.0467 47.5698C50.8454 46.0512 50.4272 44.5618 49.5149 43.2622C47.6461 40.5999 44.0999 39.2492 38.0505 39.1178L37.992 41.8132ZM57.6189 37.8866C57.6189 39.3937 57.2426 40.6202 56.6093 41.4373C56.0109 42.2094 55.1018 42.7279 53.7185 42.7279V45.4239C55.8875 45.4239 57.6026 44.5568 58.7403 43.0889C59.8431 41.666 60.3149 39.7979 60.3149 37.8866H57.6189ZM53.0422 33.0454C55.7543 33.0454 57.6189 35.1134 57.6189 37.8866H60.3149C60.3149 33.8234 57.4348 30.3493 53.0422 30.3493V33.0454ZM53.6903 45.4236C57.9248 45.5122 59.04 46.4339 59.4385 47.1893C59.6791 47.6453 59.7927 48.2642 59.8142 49.1732C59.8248 49.6197 59.8133 50.0986 59.7976 50.633C59.7822 51.1572 59.7629 51.7341 59.7629 52.3282H62.459C62.459 51.783 62.4767 51.253 62.4925 50.712C62.5081 50.1811 62.522 49.6362 62.5096 49.1094C62.485 48.0718 62.3586 46.9462 61.823 45.9312C60.6694 43.7446 58.0883 42.819 53.7467 42.7282L53.6903 45.4236ZM16.1844 37.8866C16.1844 39.7978 16.6561 41.6659 17.7587 43.0888C18.8963 44.5568 20.6113 45.4239 22.7804 45.4239V42.7279C21.3971 42.7279 20.4881 42.2095 19.8898 41.4374C19.2566 40.6203 18.8805 39.3937 18.8805 37.8866H16.1844ZM23.4571 30.3493C19.0645 30.3493 16.1844 33.8234 16.1844 37.8866H18.8805C18.8805 35.1134 20.745 33.0454 23.4571 33.0454V30.3493ZM22.7522 42.7282C18.4106 42.819 15.8296 43.7446 14.676 45.9313C14.1406 46.9462 14.0142 48.0719 13.9897 49.1095C13.9773 49.6362 13.9912 50.1811 14.0068 50.712C14.0227 51.2531 14.0404 51.783 14.0404 52.3282H16.7364C16.7364 51.734 16.7171 51.1572 16.7017 50.6329C16.6861 50.0985 16.6745 49.6196 16.685 49.1731C16.7065 48.2642 16.8201 47.6452 17.0606 47.1892C17.4591 46.4339 18.5741 45.5122 22.8086 45.4236L22.7522 42.7282Z" fill="#5B68DF"/>
</svg>
