<svg width="76" height="75" viewBox="0 0 76 75" fill="none" xmlns="http://www.w3.org/2000/svg">
<rect x="0.25" width="75" height="75" rx="20.8333" fill="#DFF1FF"/>
<path d="M50.9816 36.1145C54.5472 32.5489 54.6275 26.8483 51.161 23.3818C47.6944 19.9152 41.9938 19.9955 38.4282 23.5611C36.0386 25.9507 35.2144 29.2994 35.9743 32.2918L22.1418 46.1242C21.4882 46.7778 21.1152 47.6606 21.1022 48.5849L21.0834 49.9238C21.0557 51.8878 22.6549 53.487 24.6189 53.4594C26.2455 53.4364 27.6401 52.2918 27.9797 50.7009L28.0545 50.3506C28.3468 48.9814 29.4164 47.9118 30.7856 47.6195L31.6046 47.4446C32.9738 47.1523 34.0434 46.0827 34.3357 44.7136L34.5105 43.8945C34.8028 42.5254 35.8724 41.4558 37.2416 41.1635L39.2844 40.7274C39.9546 40.5843 40.5691 40.2503 41.0537 39.7657L42.251 38.5684C45.2433 39.3283 48.592 38.5041 50.9816 36.1145Z" stroke="#006AB7" stroke-width="3.26262"/>
<circle cx="46.4581" cy="28.0836" r="0.996912" fill="#07AD5E" style="mix-blend-mode:multiply"/>
<circle cx="46.4581" cy="28.0836" r="0.996912" stroke="#006AB7" stroke-width="1.63131"/>
</svg>
