<svg width="72" height="72" viewBox="0 0 72 72" fill="none" xmlns="http://www.w3.org/2000/svg">
<rect width="72" height="72" rx="20.8333" fill="#DFF1FF"/>
<path d="M48.7027 34.6697C52.1256 31.2468 52.2027 25.7742 48.8748 22.4463C45.547 19.1185 40.0744 19.1956 36.6514 22.6185C34.3574 24.9125 33.5662 28.1272 34.2956 30.9999L21.0165 44.2791C20.389 44.9066 20.0309 45.754 20.0184 46.6413L20.0003 47.9267C19.9738 49.8121 21.509 51.3474 23.3945 51.3208C24.956 51.2988 26.2948 50.2 26.6209 48.6727L26.6927 48.3364C26.9733 47.022 28.0001 45.9952 29.3145 45.7145L30.1007 45.5467C31.4152 45.2661 32.442 44.2393 32.7226 42.9249L32.8904 42.1386C33.171 40.8242 34.1979 39.7974 35.5123 39.5168L37.4733 39.0981C38.1167 38.9608 38.7067 38.6401 39.1719 38.1749L40.3212 37.0256C43.1939 37.755 46.4086 36.9638 48.7027 34.6697Z" stroke="#006AB7" stroke-width="3.26262"/>
<circle cx="44.3604" cy="26.9608" r="0.924409" fill="#07AD5E" style="mix-blend-mode:multiply"/>
<circle cx="44.3604" cy="26.9608" r="0.924409" stroke="#006AB7" stroke-width="1.63131"/>
</svg>
