<svg width="76" height="75" viewBox="0 0 76 75" fill="none" xmlns="http://www.w3.org/2000/svg">
<rect x="0.25" width="75" height="75" rx="20.8333" fill="#D3F0E2"/>
<path d="M39.4476 56.4847L40.1726 57.9461L39.4476 56.4847ZM38.8083 56.8019L38.0833 55.3405H38.0833L38.8083 56.8019ZM36.0553 56.8019L36.7802 55.3405H36.7802L36.0553 56.8019ZM35.416 56.4847L34.691 57.9461H34.691L35.416 56.4847ZM24.9809 22.3251L24.4629 20.7782L24.4629 20.7782L24.9809 22.3251ZM36.4001 18.5014L36.918 20.0483V20.0483L36.4001 18.5014ZM38.4635 18.5014L38.9815 16.9545V16.9545L38.4635 18.5014ZM49.8827 22.3251L50.4007 20.7782V20.7782L49.8827 22.3251ZM37.4591 18.3334L37.4728 16.7021L37.4591 18.3334ZM37.4591 57.1246L37.4447 55.4933H37.4447L37.4591 57.1246ZM49.6629 46.3247L48.2061 45.5905V45.5905L49.6629 46.3247ZM25.2007 46.3247L23.7439 47.0588H23.7439L25.2007 46.3247ZM33.694 36.6694C33.0583 36.0309 32.0255 36.0286 31.387 36.6642C30.7485 37.2998 30.7461 38.3327 31.3817 38.9712L33.694 36.6694ZM35.8005 41.0977L34.6444 42.2486C34.9505 42.5562 35.3666 42.729 35.8005 42.729C36.2344 42.729 36.6505 42.5562 36.9566 42.2486L35.8005 41.0977ZM45.1131 34.0551C45.7488 33.4166 45.7464 32.3838 45.1079 31.7481C44.4694 31.1125 43.4365 31.1148 42.8009 31.7533L45.1131 34.0551ZM38.7227 55.0233L38.0833 55.3405L39.5332 58.2633L40.1726 57.9461L38.7227 55.0233ZM36.7802 55.3405L36.1409 55.0233L34.691 57.9461L35.3304 58.2633L36.7802 55.3405ZM25.4989 23.872L36.918 20.0483L35.8821 16.9545L24.4629 20.7782L25.4989 23.872ZM37.9456 20.0483L49.3647 23.872L50.4007 20.7782L38.9815 16.9545L37.9456 20.0483ZM35.8278 57.1246V57.4847H39.0904V57.1246H35.8278ZM50.4823 25.4343V32.5212H53.7449V25.4343H50.4823ZM50.4823 32.5212V36.0115H53.7449V32.5212H50.4823ZM24.3813 36.0115V32.5302H21.1187V36.0115H24.3813ZM24.3813 32.5302V25.4343H21.1187V32.5302H24.3813ZM36.918 20.0483C37.0893 19.991 37.2674 19.9631 37.4454 19.9646L37.4728 16.7021C36.9357 16.6976 36.3981 16.7818 35.8821 16.9545L36.918 20.0483ZM37.4454 19.9646C37.6143 19.966 37.783 19.9939 37.9456 20.0483L38.9815 16.9545C38.4918 16.7906 37.9826 16.7064 37.4728 16.7021L37.4454 19.9646ZM51.1197 47.0588C52.8457 43.634 53.7449 39.8495 53.7449 36.0115H50.4823C50.4823 39.34 49.7024 42.6215 48.2061 45.5905L51.1197 47.0588ZM26.6575 45.5905C25.1612 42.6215 24.3813 39.34 24.3813 36.0115H21.1187C21.1187 39.8495 22.0179 43.634 23.7439 47.0588L26.6575 45.5905ZM38.0833 55.3405C37.8816 55.4406 37.6634 55.4914 37.4447 55.4933L37.4735 58.7558C38.1793 58.7496 38.8841 58.5853 39.5332 58.2633L38.0833 55.3405ZM37.4447 55.4933C37.2175 55.4953 36.9899 55.4445 36.7802 55.3405L35.3304 58.2633C36.0051 58.598 36.7399 58.7623 37.4735 58.7558L37.4447 55.4933ZM36.1409 55.0233C32.0484 52.9932 28.7204 49.6838 26.6575 45.5905L23.7439 47.0588C26.1236 51.7807 29.9643 55.6014 34.691 57.9461L36.1409 55.0233ZM40.1726 57.9461C44.8993 55.6014 48.74 51.7807 51.1197 47.0588L48.2061 45.5905C46.1432 49.6838 42.8152 52.9932 38.7227 55.0233L40.1726 57.9461ZM49.3647 23.872C50.0282 24.0941 50.4823 24.721 50.4823 25.4343H53.7449C53.7449 23.3262 52.4017 21.4482 50.4007 20.7782L49.3647 23.872ZM24.4629 20.7782C22.4619 21.4482 21.1187 23.3262 21.1187 25.4343H24.3813C24.3813 24.721 24.8354 24.0941 25.4989 23.872L24.4629 20.7782ZM31.3817 38.9712L34.6444 42.2486L36.9566 39.9468L33.694 36.6694L31.3817 38.9712ZM36.9566 42.2486L45.1131 34.0551L42.8009 31.7533L34.6444 39.9468L36.9566 42.2486Z" fill="#07AD5E" style="mix-blend-mode:multiply"/>
</svg>
