<svg width="16" height="18" viewBox="0 0 16 18" fill="none" xmlns="http://www.w3.org/2000/svg">
<path d="M10.0244 8.23066L11.3436 5.99215L14.8994 11.5304L14.9011 12.5933L14.8895 5.27944C14.8811 5.1006 14.7861 4.93701 14.6347 4.84051L8.23289 1.15823C8.08323 1.08462 7.89322 1.0855 7.74378 1.16055C7.72355 1.17072 7.70465 1.18167 7.68652 1.19371L7.6642 1.20775L1.45017 4.80868L1.42608 4.81973C1.39502 4.83388 1.36374 4.85212 1.33422 4.87312C1.2164 4.95757 1.13814 5.08258 1.11283 5.22262C1.10907 5.24385 1.1062 5.26551 1.10498 5.2874L1.11471 11.2474L4.42681 6.11396C4.84374 5.4333 5.75232 5.21389 6.59579 5.22594L7.58561 5.25203L1.75314 14.6056L2.44065 15.0014L8.34298 5.26153L10.9519 5.25203L5.06481 15.2378L7.51807 16.6489L7.81121 16.8174C7.93522 16.8678 8.08135 16.8703 8.20636 16.8251L14.6982 13.063L13.457 13.7823L10.0244 8.23066ZM10.5277 15.4799L8.04984 11.5908L9.56248 9.02406L12.8167 14.1533L10.5277 15.4799Z" fill="#2D374B"/>
<path d="M8.04883 11.591L10.5267 15.48L12.8156 14.1535L9.56146 9.02417L8.04883 11.591Z" fill="#28A0F0"/>
<path d="M14.9006 12.5934L14.899 11.5305L11.3431 5.99231L10.0239 8.23081L13.4566 13.7824L14.6978 13.0632C14.8195 12.9644 14.8932 12.8192 14.9009 12.6627L14.9006 12.5934Z" fill="#28A0F0"/>
<path d="M0 13.5957L1.75271 14.6056L7.58517 5.25201L6.59536 5.22592C5.75199 5.21398 4.84342 5.43328 4.42638 6.11394L1.11428 11.2474L0 12.9594V13.5957V13.5957Z" fill="white"/>
<path d="M10.9512 5.25208L8.34226 5.26158L2.43994 15.0015L4.50303 16.1893L5.06398 15.2378L10.9512 5.25208Z" fill="white"/>
<path d="M16 5.23857C15.9782 4.69299 15.6828 4.1936 15.2201 3.90279L8.73438 0.172983C8.27666 -0.0574769 7.70488 -0.0578084 7.24628 0.172873C7.19212 0.200174 0.939083 3.82674 0.939083 3.82674C0.852536 3.86819 0.769195 3.9176 0.690827 3.97375C0.277768 4.26987 0.0259751 4.7299 0 5.23526V12.9596L1.11428 11.2476L1.10455 5.28743C1.10588 5.26565 1.10864 5.2441 1.1124 5.22299C1.1376 5.08272 1.21597 4.95771 1.33379 4.87315C1.36331 4.85215 7.72301 1.17076 7.74323 1.16059C7.89278 1.08554 8.08268 1.08465 8.23234 1.15827L14.6342 4.84055C14.7856 4.93704 14.8805 5.10063 14.8889 5.27947V12.6625C14.8812 12.819 14.8193 12.9641 14.6976 13.0629L13.4564 13.7822L12.816 14.1533L10.5271 15.4798L8.20581 16.825C8.0808 16.8702 7.93456 16.8677 7.81066 16.8173L5.06426 15.2377L4.5032 16.1891L6.97139 17.6101C7.05296 17.6566 7.12569 17.6977 7.18538 17.7313C7.27778 17.7831 7.34078 17.8177 7.363 17.8285C7.53842 17.9138 7.79076 17.9633 8.01824 17.9633C8.2267 17.9633 8.43008 17.925 8.62252 17.8497L15.3649 13.9451C15.7519 13.6452 15.9796 13.193 16 12.7033V5.23857Z" fill="#96BEDC"/>
</svg>
