<svg width="16" height="16" viewBox="0 0 16 16" fill="none" xmlns="http://www.w3.org/2000/svg">
<g clip-path="url(#clip0_1139_289)">
<path d="M12.9256 2.74463H3.05322V11.7234H12.9256V2.74463Z" fill="white"/>
<path fill-rule="evenodd" clip-rule="evenodd" d="M15.9841 7.99998C15.9841 12.4124 12.4072 15.9893 7.99473 15.9893C3.58233 15.9893 0.00537109 12.4124 0.00537109 7.99998C0.00537109 3.58758 3.58233 0.0106201 7.99473 0.0106201C12.4072 0.0106201 15.9841 3.58758 15.9841 7.99998ZM5.73078 11.1793H4.18026C3.85446 11.1793 3.69352 11.1793 3.59539 11.1166C3.4894 11.0479 3.42464 10.934 3.41679 10.8084C3.41089 10.6926 3.49137 10.5513 3.65231 10.2687L7.48071 3.52057C7.64362 3.23401 7.72604 3.09074 7.83006 3.03775C7.94193 2.98083 8.0754 2.98083 8.18728 3.03775C8.2913 3.09074 8.37373 3.23401 8.53663 3.52057L9.32367 4.89444L9.32768 4.90145C9.50363 5.20886 9.59285 5.36476 9.63181 5.52837C9.67498 5.70698 9.67498 5.8954 9.63181 6.074C9.59255 6.23886 9.50423 6.39589 9.32563 6.70795L7.31466 10.2628L7.30946 10.2719C7.13235 10.5818 7.04259 10.7389 6.9182 10.8574C6.78278 10.987 6.61987 11.0812 6.44126 11.1342C6.27836 11.1793 6.09584 11.1793 5.73078 11.1793ZM9.64633 11.1793H11.868C12.1958 11.1793 12.3607 11.1793 12.4589 11.1147C12.5648 11.0459 12.6315 10.9301 12.6375 10.8046C12.6431 10.6925 12.5644 10.5567 12.4102 10.2905C12.4048 10.2814 12.3995 10.2722 12.3941 10.2628L11.2812 8.35902L11.2686 8.33759C11.1122 8.07314 11.0332 7.9396 10.9319 7.88798C10.8201 7.83106 10.6885 7.83106 10.5766 7.88798C10.4746 7.94097 10.3921 8.08032 10.2292 8.36098L9.12033 10.2648L9.11653 10.2713C8.9542 10.5515 8.87307 10.6916 8.87892 10.8065C8.88678 10.9321 8.95154 11.0479 9.05752 11.1166C9.1537 11.1793 9.31856 11.1793 9.64633 11.1793Z" fill="#E84142"/>
</g>
<defs>
<clipPath id="clip0_1139_289">
<rect width="15.9894" height="16" fill="white"/>
</clipPath>
</defs>
</svg>
