<svg width="16" height="14" viewBox="0 0 16 14" fill="none" xmlns="http://www.w3.org/2000/svg">
<g clip-path="url(#clip0_1118_237)">
<path d="M12.0833 4.24967C11.7917 4.08301 11.4167 4.08301 11.0833 4.24967L8.75 5.62467L7.16667 6.49967L4.875 7.87467C4.58333 8.04134 4.20833 8.04134 3.875 7.87467L2.08333 6.79134C1.79167 6.62467 1.58333 6.29134 1.58333 5.91634V3.83301C1.58333 3.49967 1.75 3.16634 2.08333 2.95801L3.875 1.91634C4.16667 1.74967 4.54167 1.74967 4.875 1.91634L6.66667 2.99967C6.95833 3.16634 7.16667 3.49967 7.16667 3.87467V5.24967L8.75 4.33301V2.91634C8.75 2.58301 8.58333 2.24967 8.25 2.04134L4.91667 0.0830078C4.625 -0.0836589 4.25 -0.0836589 3.91667 0.0830078L0.5 2.08301C0.166667 2.24967 0 2.58301 0 2.91634V6.83301C0 7.16634 0.166667 7.49967 0.5 7.70801L3.875 9.66634C4.16667 9.83301 4.54167 9.83301 4.875 9.66634L7.16667 8.33301L8.75 7.41634L11.0417 6.08301C11.3333 5.91634 11.7083 5.91634 12.0417 6.08301L13.8333 7.12467C14.125 7.29134 14.3333 7.62467 14.3333 7.99967V10.083C14.3333 10.4163 14.1667 10.7497 13.8333 10.958L12.0833 11.9997C11.7917 12.1663 11.4167 12.1663 11.0833 11.9997L9.29167 10.958C9 10.7913 8.79167 10.458 8.79167 10.083V8.74967L7.20833 9.66634V11.0413C7.20833 11.3747 7.375 11.708 7.70833 11.9163L11.0833 13.8747C11.375 14.0413 11.75 14.0413 12.0833 13.8747L15.4583 11.9163C15.75 11.7497 15.9583 11.4163 15.9583 11.0413V7.08301C15.9583 6.74967 15.7917 6.41634 15.4583 6.20801L12.0833 4.24967Z" fill="#8247E5"/>
</g>
<defs>
<clipPath id="clip0_1118_237">
<rect width="16" height="13.9583" fill="white"/>
</clipPath>
</defs>
</svg>
