<svg width="20" height="20" viewBox="0 0 20 20" fill="none" xmlns="http://www.w3.org/2000/svg">
<mask id="path-1-inside-1_2105_11985" fill="white">
<path d="M13.0919 6.90828C13.0144 6.83017 12.9222 6.76818 12.8207 6.72587C12.7191 6.68356 12.6102 6.66178 12.5002 6.66178C12.3902 6.66178 12.2813 6.68356 12.1797 6.72587C12.0782 6.76818 11.986 6.83017 11.9085 6.90828L10.0002 8.82494L8.09185 6.90828C7.93493 6.75136 7.72211 6.6632 7.50019 6.6632C7.27827 6.6632 7.06544 6.75136 6.90852 6.90828C6.7516 7.0652 6.66344 7.27803 6.66344 7.49994C6.66344 7.72186 6.7516 7.93469 6.90852 8.09161L8.82519 9.99994L6.90852 11.9083C6.83041 11.9857 6.76842 12.0779 6.72611 12.1795C6.6838 12.281 6.66202 12.3899 6.66202 12.4999C6.66202 12.61 6.6838 12.7189 6.72611 12.8204C6.76842 12.922 6.83041 13.0141 6.90852 13.0916C6.98599 13.1697 7.07816 13.2317 7.17971 13.274C7.28126 13.3163 7.39018 13.3381 7.50019 13.3381C7.6102 13.3381 7.71912 13.3163 7.82067 13.274C7.92222 13.2317 8.01439 13.1697 8.09185 13.0916L10.0002 11.1749L11.9085 13.0916C11.986 13.1697 12.0782 13.2317 12.1797 13.274C12.2813 13.3163 12.3902 13.3381 12.5002 13.3381C12.6102 13.3381 12.7191 13.3163 12.8207 13.274C12.9222 13.2317 13.0144 13.1697 13.0919 13.0916C13.17 13.0141 13.232 12.922 13.2743 12.8204C13.3166 12.7189 13.3384 12.61 13.3384 12.4999C13.3384 12.3899 13.3166 12.281 13.2743 12.1795C13.232 12.0779 13.17 11.9857 13.0919 11.9083L11.1752 9.99994L13.0919 8.09161C13.17 8.01414 13.232 7.92197 13.2743 7.82042C13.3166 7.71887 13.3384 7.60995 13.3384 7.49994C13.3384 7.38993 13.3166 7.28101 13.2743 7.17946C13.232 7.07791 13.17 6.98575 13.0919 6.90828ZM15.8919 4.10828C15.1231 3.31236 14.2036 2.67751 13.1869 2.24077C12.1702 1.80402 11.0767 1.57414 9.9702 1.56452C8.8637 1.55491 7.76637 1.76576 6.74224 2.18476C5.7181 2.60377 4.78767 3.22255 4.00523 4.00499C3.22279 4.78743 2.60401 5.71786 2.18501 6.74199C1.766 7.76613 1.55515 8.86346 1.56477 9.96995C1.57438 11.0764 1.80427 12.1699 2.24101 13.1866C2.67775 14.2033 3.3126 15.1229 4.10852 15.8916C4.87724 16.6875 5.79678 17.3224 6.81348 17.7591C7.83018 18.1959 8.92368 18.4258 10.0302 18.4354C11.1367 18.445 12.234 18.2341 13.2581 17.8151C14.2823 17.3961 15.2127 16.7773 15.9951 15.9949C16.7776 15.2125 17.3964 14.282 17.8154 13.2579C18.2344 12.2338 18.4452 11.1364 18.4356 10.0299C18.426 8.92344 18.1961 7.82994 17.7594 6.81324C17.3226 5.79654 16.6878 4.877 15.8919 4.10828ZM14.7169 14.7166C13.6269 15.8078 12.1923 16.4873 10.6575 16.6394C9.12273 16.7914 7.58269 16.4067 6.29979 15.5506C5.01689 14.6945 4.07049 13.4201 3.62183 11.9445C3.17318 10.4689 3.25003 8.88339 3.83928 7.4581C4.42854 6.0328 5.49375 4.8559 6.85343 4.12791C8.21311 3.39992 9.78314 3.16589 11.296 3.46567C12.8089 3.76546 14.1711 4.58052 15.1504 5.77199C16.1297 6.96347 16.6656 8.45764 16.6669 9.99994C16.6698 10.876 16.499 11.744 16.1643 12.5536C15.8296 13.3632 15.3376 14.0984 14.7169 14.7166Z"/>
</mask>
<path d="M13.0919 6.90828C13.0144 6.83017 12.9222 6.76818 12.8207 6.72587C12.7191 6.68356 12.6102 6.66178 12.5002 6.66178C12.3902 6.66178 12.2813 6.68356 12.1797 6.72587C12.0782 6.76818 11.986 6.83017 11.9085 6.90828L10.0002 8.82494L8.09185 6.90828C7.93493 6.75136 7.72211 6.6632 7.50019 6.6632C7.27827 6.6632 7.06544 6.75136 6.90852 6.90828C6.7516 7.0652 6.66344 7.27803 6.66344 7.49994C6.66344 7.72186 6.7516 7.93469 6.90852 8.09161L8.82519 9.99994L6.90852 11.9083C6.83041 11.9857 6.76842 12.0779 6.72611 12.1795C6.6838 12.281 6.66202 12.3899 6.66202 12.4999C6.66202 12.61 6.6838 12.7189 6.72611 12.8204C6.76842 12.922 6.83041 13.0141 6.90852 13.0916C6.98599 13.1697 7.07816 13.2317 7.17971 13.274C7.28126 13.3163 7.39018 13.3381 7.50019 13.3381C7.6102 13.3381 7.71912 13.3163 7.82067 13.274C7.92222 13.2317 8.01439 13.1697 8.09185 13.0916L10.0002 11.1749L11.9085 13.0916C11.986 13.1697 12.0782 13.2317 12.1797 13.274C12.2813 13.3163 12.3902 13.3381 12.5002 13.3381C12.6102 13.3381 12.7191 13.3163 12.8207 13.274C12.9222 13.2317 13.0144 13.1697 13.0919 13.0916C13.17 13.0141 13.232 12.922 13.2743 12.8204C13.3166 12.7189 13.3384 12.61 13.3384 12.4999C13.3384 12.3899 13.3166 12.281 13.2743 12.1795C13.232 12.0779 13.17 11.9857 13.0919 11.9083L11.1752 9.99994L13.0919 8.09161C13.17 8.01414 13.232 7.92197 13.2743 7.82042C13.3166 7.71887 13.3384 7.60995 13.3384 7.49994C13.3384 7.38993 13.3166 7.28101 13.2743 7.17946C13.232 7.07791 13.17 6.98575 13.0919 6.90828ZM15.8919 4.10828C15.1231 3.31236 14.2036 2.67751 13.1869 2.24077C12.1702 1.80402 11.0767 1.57414 9.9702 1.56452C8.8637 1.55491 7.76637 1.76576 6.74224 2.18476C5.7181 2.60377 4.78767 3.22255 4.00523 4.00499C3.22279 4.78743 2.60401 5.71786 2.18501 6.74199C1.766 7.76613 1.55515 8.86346 1.56477 9.96995C1.57438 11.0764 1.80427 12.1699 2.24101 13.1866C2.67775 14.2033 3.3126 15.1229 4.10852 15.8916C4.87724 16.6875 5.79678 17.3224 6.81348 17.7591C7.83018 18.1959 8.92368 18.4258 10.0302 18.4354C11.1367 18.445 12.234 18.2341 13.2581 17.8151C14.2823 17.3961 15.2127 16.7773 15.9951 15.9949C16.7776 15.2125 17.3964 14.282 17.8154 13.2579C18.2344 12.2338 18.4452 11.1364 18.4356 10.0299C18.426 8.92344 18.1961 7.82994 17.7594 6.81324C17.3226 5.79654 16.6878 4.877 15.8919 4.10828ZM14.7169 14.7166C13.6269 15.8078 12.1923 16.4873 10.6575 16.6394C9.12273 16.7914 7.58269 16.4067 6.29979 15.5506C5.01689 14.6945 4.07049 13.4201 3.62183 11.9445C3.17318 10.4689 3.25003 8.88339 3.83928 7.4581C4.42854 6.0328 5.49375 4.8559 6.85343 4.12791C8.21311 3.39992 9.78314 3.16589 11.296 3.46567C12.8089 3.76546 14.1711 4.58052 15.1504 5.77199C16.1297 6.96347 16.6656 8.45764 16.6669 9.99994C16.6698 10.876 16.499 11.744 16.1643 12.5536C15.8296 13.3632 15.3376 14.0984 14.7169 14.7166Z" stroke="#F44336" stroke-width="2" mask="url(#path-1-inside-1_2105_11985)"/>
</svg>
