<svg width="20" height="20" viewBox="0 0 20 20" fill="none" xmlns="http://www.w3.org/2000/svg">
<path d="M9.99935 9.1665C9.77834 9.1665 9.56638 9.2543 9.4101 9.41058C9.25382 9.56686 9.16602 9.77882 9.16602 9.99984V13.3332C9.16602 13.5542 9.25382 13.7661 9.4101 13.9224C9.56638 14.0787 9.77834 14.1665 9.99935 14.1665C10.2204 14.1665 10.4323 14.0787 10.5886 13.9224C10.7449 13.7661 10.8327 13.5542 10.8327 13.3332V9.99984C10.8327 9.77882 10.7449 9.56686 10.5886 9.41058C10.4323 9.2543 10.2204 9.1665 9.99935 9.1665ZM10.316 5.89984C10.1131 5.81649 9.88557 5.81649 9.68269 5.89984C9.58039 5.9395 9.48694 5.99897 9.40769 6.07484C9.33408 6.15584 9.27489 6.24885 9.23269 6.34984C9.18603 6.44874 9.1632 6.55719 9.16602 6.6665C9.16539 6.77618 9.18641 6.88489 9.22788 6.98643C9.26935 7.08796 9.33045 7.1803 9.40769 7.25817C9.48869 7.33178 9.5817 7.39097 9.68269 7.43317C9.80893 7.48504 9.94599 7.5051 10.0818 7.4916C10.2176 7.47809 10.348 7.43144 10.4616 7.35573C10.5752 7.28002 10.6684 7.17757 10.7331 7.0574C10.7978 6.93722 10.832 6.80299 10.8327 6.6665C10.8296 6.44586 10.7433 6.23453 10.591 6.07484C10.5118 5.99897 10.4183 5.9395 10.316 5.89984ZM9.99935 1.6665C8.35118 1.6665 6.74001 2.15525 5.3696 3.07092C3.99919 3.9866 2.93109 5.28809 2.30036 6.81081C1.66963 8.33353 1.5046 10.0091 1.82614 11.6256C2.14769 13.2421 2.94136 14.727 4.1068 15.8924C5.27223 17.0578 6.75709 17.8515 8.3736 18.173C9.99011 18.4946 11.6657 18.3296 13.1884 17.6988C14.7111 17.0681 16.0126 16 16.9283 14.6296C17.8439 13.2592 18.3327 11.648 18.3327 9.99984C18.3327 8.90549 18.1171 7.82186 17.6983 6.81081C17.2796 5.79976 16.6657 4.8811 15.8919 4.10728C15.1181 3.33346 14.1994 2.71963 13.1884 2.30084C12.1773 1.88205 11.0937 1.6665 9.99935 1.6665V1.6665ZM9.99935 16.6665C8.68081 16.6665 7.39188 16.2755 6.29555 15.543C5.19922 14.8104 4.34474 13.7692 3.84016 12.5511C3.33557 11.3329 3.20355 9.99244 3.46078 8.69924C3.71802 7.40603 4.35296 6.21814 5.28531 5.28579C6.21766 4.35344 7.40554 3.7185 8.69875 3.46127C9.99196 3.20403 11.3324 3.33606 12.5506 3.84064C13.7687 4.34522 14.8099 5.19971 15.5425 6.29604C16.275 7.39236 16.666 8.6813 16.666 9.99984C16.666 11.7679 15.9636 13.4636 14.7134 14.7139C13.4632 15.9641 11.7675 16.6665 9.99935 16.6665V16.6665Z" fill="#0052EA"/>
</svg>
