<svg width="20" height="20" viewBox="0 0 20 20" fill="none" xmlns="http://www.w3.org/2000/svg">
<mask id="path-1-inside-1_2105_11960" fill="white">
<path d="M12.266 7.32508L8.69102 10.9084L7.31602 9.53341C7.24131 9.44618 7.14938 9.37533 7.04599 9.32531C6.94261 9.27529 6.83 9.24718 6.71523 9.24275C6.60046 9.23832 6.48602 9.25766 6.37908 9.29955C6.27215 9.34145 6.17502 9.40499 6.09381 9.48621C6.0126 9.56742 5.94905 9.66454 5.90715 9.77148C5.86526 9.87842 5.84592 9.99286 5.85035 10.1076C5.85479 10.2224 5.8829 10.335 5.93291 10.4384C5.98293 10.5418 6.05378 10.6337 6.14102 10.7084L8.09935 12.6751C8.17722 12.7523 8.26957 12.8134 8.3711 12.8549C8.47263 12.8964 8.58135 12.9174 8.69102 12.9167C8.90964 12.9158 9.11914 12.829 9.27435 12.6751L13.441 8.50842C13.5191 8.43095 13.5811 8.33878 13.6234 8.23723C13.6657 8.13568 13.6875 8.02676 13.6875 7.91675C13.6875 7.80674 13.6657 7.69782 13.6234 7.59627C13.5811 7.49472 13.5191 7.40255 13.441 7.32508C13.2849 7.16987 13.0737 7.08275 12.8535 7.08275C12.6334 7.08275 12.4222 7.16987 12.266 7.32508ZM9.99935 1.66675C8.35118 1.66675 6.74001 2.15549 5.3696 3.07117C3.99919 3.98685 2.93109 5.28834 2.30036 6.81105C1.66963 8.33377 1.5046 10.0093 1.82614 11.6258C2.14769 13.2423 2.94136 14.7272 4.1068 15.8926C5.27223 17.0581 6.75709 17.8518 8.3736 18.1733C9.99011 18.4948 11.6657 18.3298 13.1884 17.6991C14.7111 17.0683 16.0126 16.0002 16.9283 14.6298C17.8439 13.2594 18.3327 11.6483 18.3327 10.0001C18.3327 8.90573 18.1171 7.8221 17.6983 6.81105C17.2796 5.80001 16.6657 4.88135 15.8919 4.10752C15.1181 3.3337 14.1994 2.71987 13.1884 2.30109C12.1773 1.8823 11.0937 1.66675 9.99935 1.66675V1.66675ZM9.99935 16.6667C8.68081 16.6667 7.39188 16.2758 6.29555 15.5432C5.19922 14.8107 4.34474 13.7695 3.84016 12.5513C3.33557 11.3331 3.20355 9.99269 3.46078 8.69948C3.71802 7.40627 4.35296 6.21839 5.28531 5.28604C6.21766 4.35369 7.40554 3.71875 8.69875 3.46151C9.99196 3.20428 11.3324 3.3363 12.5506 3.84088C13.7687 4.34547 14.8099 5.19995 15.5425 6.29628C16.275 7.39261 16.666 8.68154 16.666 10.0001C16.666 11.7682 15.9636 13.4639 14.7134 14.7141C13.4632 15.9644 11.7675 16.6667 9.99935 16.6667V16.6667Z"/>
</mask>
<path d="M12.266 7.32508L8.69102 10.9084L7.31602 9.53341C7.24131 9.44618 7.14938 9.37533 7.04599 9.32531C6.94261 9.27529 6.83 9.24718 6.71523 9.24275C6.60046 9.23832 6.48602 9.25766 6.37908 9.29955C6.27215 9.34145 6.17502 9.40499 6.09381 9.48621C6.0126 9.56742 5.94905 9.66454 5.90715 9.77148C5.86526 9.87842 5.84592 9.99286 5.85035 10.1076C5.85479 10.2224 5.8829 10.335 5.93291 10.4384C5.98293 10.5418 6.05378 10.6337 6.14102 10.7084L8.09935 12.6751C8.17722 12.7523 8.26957 12.8134 8.3711 12.8549C8.47263 12.8964 8.58135 12.9174 8.69102 12.9167C8.90964 12.9158 9.11914 12.829 9.27435 12.6751L13.441 8.50842C13.5191 8.43095 13.5811 8.33878 13.6234 8.23723C13.6657 8.13568 13.6875 8.02676 13.6875 7.91675C13.6875 7.80674 13.6657 7.69782 13.6234 7.59627C13.5811 7.49472 13.5191 7.40255 13.441 7.32508C13.2849 7.16987 13.0737 7.08275 12.8535 7.08275C12.6334 7.08275 12.4222 7.16987 12.266 7.32508ZM9.99935 1.66675C8.35118 1.66675 6.74001 2.15549 5.3696 3.07117C3.99919 3.98685 2.93109 5.28834 2.30036 6.81105C1.66963 8.33377 1.5046 10.0093 1.82614 11.6258C2.14769 13.2423 2.94136 14.7272 4.1068 15.8926C5.27223 17.0581 6.75709 17.8518 8.3736 18.1733C9.99011 18.4948 11.6657 18.3298 13.1884 17.6991C14.7111 17.0683 16.0126 16.0002 16.9283 14.6298C17.8439 13.2594 18.3327 11.6483 18.3327 10.0001C18.3327 8.90573 18.1171 7.8221 17.6983 6.81105C17.2796 5.80001 16.6657 4.88135 15.8919 4.10752C15.1181 3.3337 14.1994 2.71987 13.1884 2.30109C12.1773 1.8823 11.0937 1.66675 9.99935 1.66675V1.66675ZM9.99935 16.6667C8.68081 16.6667 7.39188 16.2758 6.29555 15.5432C5.19922 14.8107 4.34474 13.7695 3.84016 12.5513C3.33557 11.3331 3.20355 9.99269 3.46078 8.69948C3.71802 7.40627 4.35296 6.21839 5.28531 5.28604C6.21766 4.35369 7.40554 3.71875 8.69875 3.46151C9.99196 3.20428 11.3324 3.3363 12.5506 3.84088C13.7687 4.34547 14.8099 5.19995 15.5425 6.29628C16.275 7.39261 16.666 8.68154 16.666 10.0001C16.666 11.7682 15.9636 13.4639 14.7134 14.7141C13.4632 15.9644 11.7675 16.6667 9.99935 16.6667V16.6667Z" stroke="#23A047" stroke-width="2" mask="url(#path-1-inside-1_2105_11960)"/>
</svg>
