<svg width="12" height="12" viewBox="0 0 12 12" fill="none" xmlns="http://www.w3.org/2000/svg">
<g clip-path="url(#clip0_4256_43881)">
<path d="M8.91987 7.71973H9.51987C9.84987 7.71973 10.1199 7.44973 10.1199 7.11973V2.31973C10.1199 1.98973 9.84987 1.71973 9.51987 1.71973H4.71987C4.38987 1.71973 4.11987 1.98973 4.11987 2.31973V2.91973" stroke="#003669" stroke-width="1.05"/>
<path d="M7.11997 4.12988H2.31997C1.9886 4.12988 1.71997 4.39851 1.71997 4.72988V9.52988C1.71997 9.86125 1.9886 10.1299 2.31997 10.1299H7.11997C7.45134 10.1299 7.71997 9.86125 7.71997 9.52988V4.72988C7.71997 4.39851 7.45134 4.12988 7.11997 4.12988Z" fill="#003669" stroke="#003669" stroke-width="1.05"/>
<path d="M3.87984 8.01055L6.45984 5.43055C6.53984 5.35055 6.62984 5.31055 6.72984 5.31055C6.82984 5.31055 6.91984 5.35055 6.99984 5.43055C7.07984 5.51055 7.11984 5.60055 7.11984 5.70055C7.11984 5.80055 7.07984 5.89055 6.99984 5.97055L4.14984 8.82055C4.06984 8.90055 3.97984 8.94055 3.87984 8.94055C3.77984 8.94055 3.68984 8.90055 3.60984 8.82055L2.45984 7.67055C2.37984 7.59055 2.33984 7.50055 2.33984 7.40055C2.33984 7.30055 2.37984 7.21055 2.45984 7.13055C2.53984 7.05055 2.62984 7.01055 2.72984 7.01055C2.82984 7.01055 2.91984 7.05055 2.99984 7.13055L3.88984 8.01055H3.87984Z" fill="white"/>
</g>
<defs>
<clipPath id="clip0_4256_43881">
<rect width="9.45" height="9.45" fill="white" transform="translate(1.19995 1.2002)"/>
</clipPath>
</defs>
</svg>
