<svg width="84" height="84" viewBox="0 0 84 84" fill="none" xmlns="http://www.w3.org/2000/svg">
<rect width="84" height="84" rx="42" fill="#DFF1FF"/>
<path d="M39 42C39 43.5913 38.3679 45.1174 37.2426 46.2426C36.1174 47.3679 34.5913 48 33 48C31.4087 48 29.8826 47.3679 28.7574 46.2426C27.6321 45.1174 27 43.5913 27 42C27 40.4087 27.6321 38.8826 28.7574 37.7574C29.8826 36.6321 31.4087 36 33 36C34.5913 36 36.1174 36.6321 37.2426 37.7574C38.3679 38.8826 39 40.4087 39 42ZM39 42H57V46.5M51 42V46.5" stroke="#006AB7" stroke-width="1.5" stroke-linecap="round" stroke-linejoin="round"/>
</svg>
