<svg width="11" height="10" viewBox="0 0 11 10" fill="none" xmlns="http://www.w3.org/2000/svg">
<path d="M6.19923 0.100098C6.01358 0.100098 5.83553 0.173847 5.70425 0.305123C5.57298 0.436398 5.49923 0.614446 5.49923 0.800098C5.49923 0.985749 5.57298 1.1638 5.70425 1.29507C5.83553 1.42635 6.01358 1.5001 6.19923 1.5001H8.00943L3.60433 5.9052C3.53747 5.96977 3.48414 6.04701 3.44746 6.13241C3.41077 6.21782 3.39146 6.30967 3.39065 6.40262C3.38984 6.49556 3.40755 6.58774 3.44275 6.67377C3.47795 6.75979 3.52993 6.83795 3.59565 6.90367C3.66138 6.9694 3.73953 7.02138 3.82556 7.05657C3.91159 7.09177 4.00376 7.10948 4.09671 7.10867C4.18965 7.10787 4.28151 7.08855 4.36691 7.05187C4.45231 7.01518 4.52955 6.96185 4.59413 6.895L8.99923 2.4899V4.3001C8.99923 4.48575 9.07298 4.6638 9.20425 4.79507C9.33553 4.92635 9.51358 5.0001 9.69923 5.0001C9.88488 5.0001 10.0629 4.92635 10.1942 4.79507C10.3255 4.6638 10.3992 4.48575 10.3992 4.3001V0.800098C10.3992 0.614446 10.3255 0.436398 10.1942 0.305123C10.0629 0.173847 9.88488 0.100098 9.69923 0.100098H6.19923Z" fill="#006AB7"/>
<path d="M1.99961 1.5C1.62831 1.5 1.27221 1.6475 1.00966 1.91005C0.747109 2.1726 0.599609 2.5287 0.599609 2.9V8.5C0.599609 8.8713 0.747109 9.2274 1.00966 9.48995C1.27221 9.7525 1.62831 9.9 1.99961 9.9H7.59961C7.97091 9.9 8.32701 9.7525 8.58956 9.48995C8.85211 9.2274 8.99961 8.8713 8.99961 8.5V6.4C8.99961 6.21435 8.92586 6.0363 8.79458 5.90503C8.66331 5.77375 8.48526 5.7 8.29961 5.7C8.11396 5.7 7.93591 5.77375 7.80463 5.90503C7.67336 6.0363 7.59961 6.21435 7.59961 6.4V8.5H1.99961V2.9H4.09961C4.28526 2.9 4.46331 2.82625 4.59458 2.69497C4.72586 2.5637 4.79961 2.38565 4.79961 2.2C4.79961 2.01435 4.72586 1.8363 4.59458 1.70503C4.46331 1.57375 4.28526 1.5 4.09961 1.5H1.99961Z" fill="#006AB7"/>
</svg>
