<svg width="14" height="14" viewBox="0 0 14 14" fill="none" xmlns="http://www.w3.org/2000/svg">
<path fill-rule="evenodd" clip-rule="evenodd" d="M9.2785 0.875H12.9062C12.9643 0.875 13.0199 0.898047 13.0609 0.939071C13.102 0.980094 13.125 1.03573 13.125 1.09375V4.7215C13.1251 4.76482 13.1123 4.80719 13.0883 4.84324C13.0642 4.87928 13.03 4.90738 12.99 4.92397C12.95 4.94056 12.906 4.94489 12.8635 4.93642C12.821 4.92794 12.782 4.90705 12.7514 4.87638L11.4012 3.52625L8.12 6.8075C7.9956 6.92342 7.83106 6.98653 7.66104 6.98353C7.49103 6.98053 7.32882 6.91166 7.20858 6.79142C7.08835 6.67118 7.01947 6.50897 7.01647 6.33896C7.01347 6.16894 7.07658 6.0044 7.1925 5.88L10.4738 2.59875L9.12362 1.24863C9.09295 1.21803 9.07206 1.17902 9.06358 1.13653C9.05511 1.09405 9.05944 1.05 9.07603 1.00999C9.09262 0.969966 9.12072 0.935773 9.15676 0.911742C9.19281 0.88771 9.23518 0.874923 9.2785 0.875ZM3.28125 1.75C2.87514 1.75 2.48566 1.91133 2.19849 2.19849C1.91133 2.48566 1.75 2.87514 1.75 3.28125V10.7188C1.75 11.564 2.436 12.25 3.28125 12.25H10.7188C11.1249 12.25 11.5143 12.0887 11.8015 11.8015C12.0887 11.5143 12.25 11.1249 12.25 10.7188V7.65625C12.25 7.4822 12.1809 7.31528 12.0578 7.19221C11.9347 7.06914 11.7678 7 11.5938 7C11.4197 7 11.2528 7.06914 11.1297 7.19221C11.0066 7.31528 10.9375 7.4822 10.9375 7.65625V10.7188C10.9375 10.7768 10.9145 10.8324 10.8734 10.8734C10.8324 10.9145 10.7768 10.9375 10.7188 10.9375H3.28125C3.22323 10.9375 3.16759 10.9145 3.12657 10.8734C3.08555 10.8324 3.0625 10.7768 3.0625 10.7188V3.28125C3.0625 3.22323 3.08555 3.16759 3.12657 3.12657C3.16759 3.08555 3.22323 3.0625 3.28125 3.0625H6.34375C6.5178 3.0625 6.68472 2.99336 6.80779 2.87029C6.93086 2.74722 7 2.5803 7 2.40625C7 2.2322 6.93086 2.06528 6.80779 1.94221C6.68472 1.81914 6.5178 1.75 6.34375 1.75H3.28125Z" fill="#003669" fill-opacity="0.8" style="mix-blend-mode:multiply"/>
</svg>
