<svg width="24" height="24" viewBox="0 0 24 24" fill="none" xmlns="http://www.w3.org/2000/svg">
<mask id="mask0_4062_41809" style="mask-type:alpha" maskUnits="userSpaceOnUse" x="0" y="0" width="24" height="24">
<rect width="24" height="24" fill="#D9D9D9"/>
</mask>
<g mask="url(#mask0_4062_41809)">
<path d="M4 18C3.45 18 2.97917 17.8042 2.5875 17.4125C2.19583 17.0208 2 16.55 2 16V8C2 7.45 2.19583 6.97917 2.5875 6.5875C2.97917 6.19583 3.45 6 4 6H20C20.55 6 21.0208 6.19583 21.4125 6.5875C21.8042 6.97917 22 7.45 22 8V16C22 16.55 21.8042 17.0208 21.4125 17.4125C21.0208 17.8042 20.55 18 20 18H4ZM4 16H20V8H4V16ZM7 13V14C7 14.2833 7.09583 14.5208 7.2875 14.7125C7.47917 14.9042 7.71667 15 8 15C8.28333 15 8.52083 14.9042 8.7125 14.7125C8.90417 14.5208 9 14.2833 9 14V13H10C10.2833 13 10.5208 12.9042 10.7125 12.7125C10.9042 12.5208 11 12.2833 11 12C11 11.7167 10.9042 11.4792 10.7125 11.2875C10.5208 11.0958 10.2833 11 10 11H9V10C9 9.71667 8.90417 9.47917 8.7125 9.2875C8.52083 9.09583 8.28333 9 8 9C7.71667 9 7.47917 9.09583 7.2875 9.2875C7.09583 9.47917 7 9.71667 7 10V11H6C5.71667 11 5.47917 11.0958 5.2875 11.2875C5.09583 11.4792 5 11.7167 5 12C5 12.2833 5.09583 12.5208 5.2875 12.7125C5.47917 12.9042 5.71667 13 6 13H7ZM14.5 15C14.9167 15 15.2708 14.8542 15.5625 14.5625C15.8542 14.2708 16 13.9167 16 13.5C16 13.0833 15.8542 12.7292 15.5625 12.4375C15.2708 12.1458 14.9167 12 14.5 12C14.0833 12 13.7292 12.1458 13.4375 12.4375C13.1458 12.7292 13 13.0833 13 13.5C13 13.9167 13.1458 14.2708 13.4375 14.5625C13.7292 14.8542 14.0833 15 14.5 15ZM17.5 12C17.9167 12 18.2708 11.8542 18.5625 11.5625C18.8542 11.2708 19 10.9167 19 10.5C19 10.0833 18.8542 9.72917 18.5625 9.4375C18.2708 9.14583 17.9167 9 17.5 9C17.0833 9 16.7292 9.14583 16.4375 9.4375C16.1458 9.72917 16 10.0833 16 10.5C16 10.9167 16.1458 11.2708 16.4375 11.5625C16.7292 11.8542 17.0833 12 17.5 12Z" fill="#006AB7"/>
</g>
</svg>
