<svg width="1200" height="370" viewBox="0 0 1200 370" fill="none" xmlns="http://www.w3.org/2000/svg">
<path fill-rule="evenodd" clip-rule="evenodd" d="M157.954 237.901L135.319 250.836C117.574 260.978 97.3989 266.325 76.972 266.325H12.0631V335.824H82.5874C112.936 335.824 139.688 315.918 148.411 286.847L163.964 235.015C161.898 235.835 159.894 236.797 157.954 237.901Z" fill="#F92572"/>
<path fill-rule="evenodd" clip-rule="evenodd" d="M255.31 127.28H190.401C175.984 127.28 161.835 131.034 149.31 138.195L126.675 151.13C114.166 158.275 100.002 162.045 85.5844 162.045H12V231.56H76.9089C91.326 231.56 105.475 227.806 117.999 220.645L140.635 207.71C153.143 200.565 167.308 196.795 181.725 196.795H255.325V127.28H255.31Z" fill="#F92572"/>
<path d="M398.614 269.985C445.525 269.985 472.482 246.198 472.482 213.136C472.482 137.785 369.669 172.487 369.669 139.441C369.669 128.211 380.979 120.608 398.614 120.608C417.574 120.608 427.559 128.873 429.562 141.429H467.829C465.163 106.727 436.881 87.5617 398.945 87.5617C355.693 87.5617 330.061 111.348 330.061 140.766C330.061 213.468 430.556 178.434 430.556 215.455C430.556 227.68 419.246 236.276 399.276 236.276C379.307 236.276 367.666 228.342 365.994 213.468H326.055C327.727 247.838 351.34 269.985 398.598 269.985H398.614Z" fill="#002F5B"/>
<path d="M566.809 265.694H599.082V229.999H575.784C559.143 229.999 551.824 220.739 551.824 206.212V126.239H600.076V91.8681H551.824V43.9475H511.222V78.981C511.222 87.2464 506.238 92.1994 498.572 92.1994H478.934V126.239H508.541V207.868C508.541 245.204 530.498 265.694 566.777 265.694H566.809Z" fill="#002F5B"/>
<path d="M625.598 265.694H668.849V183.403C668.849 152.344 685.49 132.186 713.11 132.186H731.076V91.2055H715.114C690.822 91.2055 674.843 106.743 669.196 120.292H666.53V91.868H625.598V265.694Z" fill="#002F5B"/>
<path d="M754.942 265.694H798.194V91.8681H754.942V265.694ZM798.194 23H754.942V66.2515H798.194V23Z" fill="#002F5B"/>
<path d="M829.047 265.694H872.299V166.225C872.299 144.41 887.268 127.895 908.231 127.895C929.194 127.895 941.845 142.107 941.845 163.26V265.71H985.096V152.013C985.096 114.992 961.136 87.5775 921.875 87.5775C896.921 87.5775 879.618 100.133 872.63 113.021H870.295V91.868H829.031V265.694H829.047Z" fill="#002F5B"/>
<path d="M1097.83 345.998C1157.06 345.998 1187 311.627 1187 264.369V91.868H1144.08V114.346H1141.41C1136.08 105.749 1118.79 87.5775 1087.85 87.5775C1041.27 87.5775 1006.99 123.273 1006.99 178.134C1006.99 232.995 1041.93 268.36 1089.17 268.36C1120.45 268.36 1136.76 249.858 1141.75 241.923H1144.41V264.401C1144.41 294.15 1129.11 310.665 1097.83 310.665C1074.2 310.665 1060.23 300.759 1056.9 285.222H1016.98C1019.97 317.606 1047.26 346.03 1097.83 346.03V345.998ZM1097.83 229.667C1069.88 229.667 1050.92 209.84 1050.92 178.119C1050.92 146.398 1069.88 126.57 1097.5 126.57C1125.12 126.57 1144.74 145.735 1144.74 178.119C1144.74 207.537 1126.78 229.667 1097.83 229.667Z" fill="#002F5B"/>
<path fill-rule="evenodd" clip-rule="evenodd" d="M109.482 120.923L132.117 107.989C149.862 97.8463 170.037 92.499 190.464 92.499H255.373V23H184.848C154.5 23 127.732 42.9064 119.025 71.9774L105.727 116.302L103.472 123.81C105.538 122.99 107.541 122.027 109.482 120.923Z" fill="#F92572"/>
</svg>
