<svg width="75" height="18" viewBox="0 0 75 18" fill="none" xmlns="http://www.w3.org/2000/svg">
<path d="M0.46293 17.9997H9.33889C9.44941 17.9997 9.5562 17.9604 9.6405 17.8873L19.8484 9.10128C20.1725 8.82215 19.9758 8.29199 19.5468 8.29199H10.669C10.5584 8.29199 10.4517 8.33133 10.3674 8.40439L0.16132 17.1886C-0.162771 17.4677 0.0339316 17.9978 0.46293 17.9978V17.9997Z" fill="#006AB7"/>
<circle cx="10.7983" cy="9.37931" r="2.5756" fill="#FFEB84"/>
<path d="M1.2598 9.7096H10.1358C10.2463 9.7096 10.3531 9.67026 10.4374 9.5972L20.6434 0.809289C20.9675 0.532033 20.7708 0 20.3437 0H11.4658C11.3553 0 11.2485 0.0393405 11.1642 0.112401L0.958195 8.89844C0.634104 9.17757 0.830807 9.70773 1.2598 9.70773V9.7096Z" fill="#F92572"/>
<path d="M27.8236 12.2498C28.3245 12.2498 28.7167 12.1581 29.0003 11.9746C29.2933 11.7912 29.4398 11.5401 29.4398 11.2215C29.4398 10.9994 29.3972 10.8208 29.3122 10.6856C29.2271 10.5408 29.057 10.4105 28.8018 10.2946C28.5466 10.1691 28.1638 10.0387 27.6534 9.90356C26.8311 9.69114 26.2121 9.4208 25.7962 9.09252C25.3898 8.75458 25.1866 8.27182 25.1866 7.64423C25.1866 6.97802 25.4559 6.44698 25.9947 6.05112C26.5334 5.64559 27.2612 5.44283 28.178 5.44283C29.2838 5.44283 30.2337 5.73732 31.0276 6.32629L30.3471 7.35457C29.6761 6.90078 28.9672 6.67388 28.2205 6.67388C27.2754 6.67388 26.8028 6.95388 26.8028 7.51388C26.8028 7.70699 26.8548 7.8663 26.9587 7.99182C27.0722 8.11734 27.2612 8.23803 27.5258 8.35389C27.7905 8.4601 28.1827 8.58562 28.7026 8.73045C29.5154 8.96217 30.1203 9.247 30.5173 9.58494C30.9237 9.92287 31.1269 10.4298 31.1269 11.1056C31.1269 11.8877 30.8103 12.4815 30.177 12.887C29.5437 13.2829 28.7593 13.4808 27.8236 13.4808C26.5854 13.4808 25.5599 13.1236 24.7471 12.4091L25.5835 11.4243C25.8954 11.6753 26.2404 11.8781 26.6185 12.0325C27.006 12.1774 27.4077 12.2498 27.8236 12.2498Z" fill="#003669"/>
<path d="M39.8546 12.887C39.5711 13.0705 39.2403 13.2153 38.8622 13.3215C38.4841 13.4277 38.0872 13.4808 37.6713 13.4808C36.8207 13.4808 36.1638 13.2588 35.7006 12.8146C35.2375 12.3608 35.006 11.7477 35.006 10.9753V6.83319H33.3472V5.6456H35.006V3.93662L36.5938 3.74834V5.6456H39.1316L38.9473 6.83319H36.5938V10.9608C36.5938 11.376 36.6978 11.685 36.9057 11.8877C37.1137 12.0808 37.4445 12.1774 37.8981 12.1774C38.3991 12.1774 38.8622 12.0567 39.2875 11.8153L39.8546 12.887Z" fill="#003669"/>
<path d="M47.4056 5.45732C47.7931 5.45732 48.1712 5.52008 48.5398 5.6456L48.2704 8.46975H47.1362V6.9056C46.6164 6.91526 46.1627 7.12767 45.7752 7.54285C45.3972 7.95803 45.0947 8.54217 44.8679 9.29528V12.1339H46.3707V13.2925H42.1742V12.1339H43.28V6.80422H42.1742V5.6456H44.4851L44.7686 7.4125C45.0616 6.75595 45.4161 6.26836 45.8319 5.94974C46.2573 5.62146 46.7818 5.45732 47.4056 5.45732Z" fill="#003669"/>
<path d="M53.5956 1.89453C53.898 1.89453 54.1438 1.99591 54.3328 2.19867C54.5313 2.39178 54.6305 2.63316 54.6305 2.92282C54.6305 3.21247 54.5313 3.45385 54.3328 3.64696C54.1438 3.84006 53.898 3.93662 53.5956 3.93662C53.2837 3.93662 53.0332 3.84006 52.8442 3.64696C52.6552 3.45385 52.5606 3.21247 52.5606 2.92282C52.5606 2.6235 52.6552 2.37729 52.8442 2.18419C53.0427 1.99108 53.2931 1.89453 53.5956 1.89453ZM54.6873 12.105H56.7288V13.2925H50.8735V12.105H53.0994V6.83319H50.9444V5.6456H54.6873V12.105Z" fill="#003669"/>
<path d="M59.1051 5.6456H60.4803L60.5937 6.64491C60.9056 6.2587 61.2695 5.96422 61.6853 5.76146C62.1107 5.54904 62.5549 5.44283 63.018 5.44283C63.708 5.44283 64.2278 5.64077 64.5775 6.03663C64.9272 6.4325 65.1021 6.9925 65.1021 7.71664V13.2925H63.5142V8.52769C63.5142 8.05458 63.4859 7.69251 63.4292 7.44147C63.3819 7.18078 63.2827 6.9925 63.1314 6.87664C62.9802 6.75112 62.7534 6.68836 62.4509 6.68836C62.1107 6.68836 61.7846 6.79457 61.4727 7.00698C61.1702 7.2194 60.9103 7.48492 60.6929 7.80354V13.2925H59.1051V5.6456Z" fill="#003669"/>
<path d="M74.326 6.02215C74.0519 6.1187 73.74 6.18629 73.3903 6.22491C73.0501 6.25388 72.6389 6.26836 72.1569 6.26836C72.6106 6.48077 72.9508 6.74629 73.1777 7.06492C73.4045 7.38354 73.5179 7.76975 73.5179 8.22355C73.5179 8.72562 73.395 9.16976 73.1493 9.55597C72.913 9.94218 72.5728 10.2463 72.1285 10.4684C71.6843 10.6905 71.1597 10.8015 70.5548 10.8015C70.1295 10.8015 69.7893 10.758 69.5341 10.6712C69.4301 10.7484 69.3498 10.8449 69.2931 10.9608C69.2363 11.067 69.208 11.1829 69.208 11.3084C69.208 11.6946 69.5152 11.8877 70.1295 11.8877H71.4338C71.9631 11.8877 72.4357 11.9794 72.8516 12.1629C73.2674 12.3463 73.5888 12.6022 73.8156 12.9305C74.0519 13.2491 74.1701 13.6112 74.1701 14.0167C74.1701 14.7795 73.8487 15.3684 73.206 15.7836C72.5633 16.2084 71.637 16.4208 70.4272 16.4208C69.5861 16.4208 68.9197 16.3291 68.4282 16.1457C67.9462 15.9719 67.6012 15.7112 67.3933 15.3636C67.1948 15.0257 67.0956 14.5864 67.0956 14.0457H68.5133C68.5133 14.3353 68.5653 14.5622 68.6692 14.7264C68.7827 14.9001 68.9764 15.0257 69.2505 15.1029C69.5246 15.1898 69.9216 15.2333 70.4414 15.2333C71.1975 15.2333 71.741 15.1367 72.0718 14.9436C72.4026 14.7601 72.568 14.485 72.568 14.1181C72.568 13.8091 72.4357 13.5677 72.1711 13.3939C71.9159 13.2298 71.5662 13.1477 71.1219 13.1477H69.8318C69.1607 13.1477 68.6503 13.0077 68.3006 12.7277C67.9604 12.4477 67.7903 12.0953 67.7903 11.6705C67.7903 11.4098 67.8611 11.1587 68.0029 10.9174C68.1447 10.676 68.3479 10.4684 68.6125 10.2946C68.1683 10.0532 67.8422 9.76356 67.6343 9.42562C67.4358 9.07803 67.3366 8.6532 67.3366 8.15113C67.3366 7.62009 67.4689 7.15181 67.7335 6.74629C67.9982 6.33112 68.3668 6.01249 68.8394 5.79042C69.312 5.5587 69.8507 5.44283 70.4556 5.44283C71.2684 5.45249 71.9111 5.39456 72.3837 5.26904C72.8657 5.14352 73.3761 4.94559 73.9149 4.67524L74.326 6.02215ZM70.4698 6.5725C69.9688 6.5725 69.5908 6.71733 69.3356 7.00698C69.0804 7.28699 68.9528 7.66837 68.9528 8.15113C68.9528 8.64355 69.0804 9.03459 69.3356 9.32424C69.6002 9.60425 69.983 9.74425 70.4839 9.74425C70.9565 9.74425 71.3157 9.60425 71.5614 9.32424C71.8072 9.04424 71.93 8.64355 71.93 8.12217C71.93 7.08905 71.4433 6.5725 70.4698 6.5725Z" fill="#003669"/>
</svg>
