<svg width="17" height="14" viewBox="0 0 17 14" fill="none" xmlns="http://www.w3.org/2000/svg">
<path d="M9.16817 12.5517C9.37215 12.5517 9.54454 12.4827 9.68534 12.3448C9.82615 12.2068 9.89655 12.0358 9.89655 11.8318C9.89655 11.6279 9.82756 11.4555 9.68959 11.3147C9.5516 11.1739 9.38062 11.1034 9.17666 11.1034C8.97268 11.1034 8.80029 11.1724 8.65948 11.3104C8.51868 11.4484 8.44828 11.6194 8.44828 11.8233C8.44828 12.0273 8.51726 12.1997 8.65524 12.3405C8.79323 12.4813 8.9642 12.5517 9.16817 12.5517ZM13.9958 5.31034C14.1997 5.31034 14.3721 5.24136 14.5129 5.10338C14.6537 4.96539 14.7241 4.79442 14.7241 4.59045C14.7241 4.38647 14.6551 4.21408 14.5172 4.07328C14.3792 3.93247 14.2082 3.86207 14.0042 3.86207C13.8003 3.86207 13.6279 3.93106 13.4871 4.06903C13.3463 4.20702 13.2759 4.378 13.2759 4.58196C13.2759 4.78594 13.3448 4.95833 13.4828 5.09914C13.6208 5.23994 13.7918 5.31034 13.9958 5.31034ZM6.27586 4.82759C6.48103 4.82759 6.65302 4.7586 6.79181 4.62062C6.9306 4.48264 7 4.31166 7 4.10769C7 3.90371 6.9306 3.73132 6.79181 3.59052C6.65302 3.44971 6.48103 3.37931 6.27586 3.37931H3.62069C3.41552 3.37931 3.24353 3.4483 3.10474 3.58627C2.96595 3.72426 2.89655 3.89524 2.89655 4.0992C2.89655 4.30318 2.96595 4.47557 3.10474 4.61638C3.24353 4.75718 3.41552 4.82759 3.62069 4.82759H6.27586ZM6.27586 8.2069C6.48103 8.2069 6.65302 8.13791 6.79181 7.99993C6.9306 7.86195 7 7.69097 7 7.487C7 7.28302 6.9306 7.11063 6.79181 6.96983C6.65302 6.82902 6.48103 6.75862 6.27586 6.75862H3.62069C3.41552 6.75862 3.24353 6.82761 3.10474 6.96558C2.96595 7.10357 2.89655 7.27455 2.89655 7.47851C2.89655 7.68249 2.96595 7.85488 3.10474 7.99569C3.24353 8.13649 3.41552 8.2069 3.62069 8.2069H6.27586ZM1.44828 11.5862C1.05 11.5862 0.709052 11.4443 0.425431 11.1605C0.14181 10.8768 0 10.5356 0 10.1371V1.44258C0 1.04408 0.14181 0.704023 0.425431 0.422414C0.709052 0.140805 1.05 0 1.44828 0H14C14.3983 0 14.7392 0.14181 15.0228 0.425431C15.3065 0.709052 15.4483 1.05 15.4483 1.44828H1.44828V10.1379H5.55172V11.5862H1.44828ZM9.17241 14C8.56896 14 8.05603 13.7889 7.63362 13.3668C7.21121 12.9447 7 12.4321 7 11.8291C7 11.3587 7.1341 10.9358 7.4023 10.5603C7.6705 10.1849 8.01916 9.92337 8.44828 9.77586V8.44828C8.44828 8.2431 8.51767 8.07112 8.65646 7.93233C8.79526 7.79353 8.96724 7.72414 9.17241 7.72414H13.2759V6.63793C12.8467 6.49042 12.4981 6.22946 12.2299 5.85504C11.9617 5.48063 11.8276 5.05791 11.8276 4.58687C11.8276 3.98298 12.0388 3.46983 12.4612 3.04741C12.8836 2.625 13.3966 2.41379 14 2.41379C14.6034 2.41379 15.1164 2.62485 15.5388 3.04697C15.9612 3.46909 16.1724 3.98166 16.1724 4.58468C16.1724 5.05505 16.0383 5.47797 15.7701 5.85345C15.5019 6.22893 15.1533 6.49042 14.7241 6.63793V8.44828C14.7241 8.65345 14.6547 8.82543 14.5159 8.96423C14.3772 9.10302 14.2052 9.17241 14 9.17241H9.89655V9.77586C10.3257 9.92337 10.6743 10.1843 10.9425 10.5588C11.2107 10.9332 11.3448 11.3559 11.3448 11.8269C11.3448 12.4308 11.1336 12.944 10.7112 13.3664C10.2888 13.7888 9.77586 14 9.17241 14Z" fill="#003669"/>
</svg>
