<svg width="16" height="16" viewBox="0 0 16 16" fill="none" xmlns="http://www.w3.org/2000/svg">
<mask id="mask0_4062_45307" style="mask-type:alpha" maskUnits="userSpaceOnUse" x="0" y="0" width="16" height="16">
<rect width="16" height="16" fill="#D9D9D9"/>
</mask>
<g mask="url(#mask0_4062_45307)">
<path d="M9.19649 13.6C9.3655 13.6 9.50834 13.5428 9.62501 13.4285C9.74167 13.3142 9.80001 13.1725 9.80001 13.0035C9.80001 12.8345 9.74285 12.6917 9.62852 12.575C9.51419 12.4583 9.37252 12.4 9.20352 12.4C9.03451 12.4 8.89167 12.4572 8.77501 12.5715C8.65834 12.6858 8.60001 12.8275 8.60001 12.9965C8.60001 13.1655 8.65717 13.3083 8.77149 13.425C8.88582 13.5417 9.02749 13.6 9.19649 13.6ZM13.1965 7.6C13.3655 7.6 13.5083 7.54284 13.625 7.42851C13.7417 7.31418 13.8 7.17251 13.8 7.00351C13.8 6.8345 13.7428 6.69166 13.6285 6.575C13.5142 6.45833 13.3725 6.4 13.2035 6.4C13.0345 6.4 12.8917 6.45716 12.775 6.57148C12.6583 6.68581 12.6 6.82748 12.6 6.99648C12.6 7.16549 12.6572 7.30833 12.7715 7.425C12.8858 7.54166 13.0275 7.6 13.1965 7.6ZM6.80001 7.2C6.97001 7.2 7.11251 7.14284 7.22751 7.02851C7.34251 6.91418 7.40001 6.77251 7.40001 6.60351C7.40001 6.4345 7.34251 6.29166 7.22751 6.175C7.11251 6.05833 6.97001 6 6.80001 6H4.60001C4.43001 6 4.28751 6.05716 4.17251 6.17148C4.05751 6.28581 4.00001 6.42748 4.00001 6.59648C4.00001 6.76549 4.05751 6.90833 4.17251 7.025C4.28751 7.14166 4.43001 7.2 4.60001 7.2H6.80001ZM6.80001 10C6.97001 10 7.11251 9.94284 7.22751 9.82851C7.34251 9.71418 7.40001 9.57251 7.40001 9.40351C7.40001 9.2345 7.34251 9.09166 7.22751 8.975C7.11251 8.85833 6.97001 8.8 6.80001 8.8H4.60001C4.43001 8.8 4.28751 8.85716 4.17251 8.97148C4.05751 9.08581 4.00001 9.22748 4.00001 9.39648C4.00001 9.56549 4.05751 9.70833 4.17251 9.825C4.28751 9.94166 4.43001 10 4.60001 10H6.80001ZM2.80001 12.8C2.47001 12.8 2.18751 12.6824 1.95251 12.4473C1.71751 12.2122 1.60001 11.9295 1.60001 11.5993V4.39528C1.60001 4.06509 1.71751 3.78333 1.95251 3.55C2.18751 3.31666 2.47001 3.2 2.80001 3.2H13.2C13.53 3.2 13.8125 3.3175 14.0475 3.5525C14.2825 3.7875 14.4 4.07 14.4 4.4H2.80001V11.6H6.20001V12.8H2.80001ZM9.20001 14.8C8.70001 14.8 8.27501 14.6251 7.92501 14.2754C7.57501 13.9256 7.40001 13.5009 7.40001 13.0012C7.40001 12.6115 7.51112 12.2611 7.73334 11.95C7.95556 11.6389 8.24445 11.4222 8.60001 11.3V10.2C8.60001 10.03 8.65751 9.8875 8.77251 9.7725C8.88751 9.6575 9.03001 9.6 9.20001 9.6H12.6V8.7C12.2444 8.57777 11.9556 8.36155 11.7333 8.05131C11.5111 7.74109 11.4 7.39084 11.4 7.00055C11.4 6.50018 11.575 6.075 11.925 5.725C12.275 5.375 12.7 5.2 13.2 5.2C13.7 5.2 14.125 5.37487 14.475 5.72463C14.825 6.07439 15 6.49909 15 6.99873C15 7.38846 14.8889 7.73889 14.6667 8.05C14.4445 8.36111 14.1556 8.57777 13.8 8.7V10.2C13.8 10.37 13.7425 10.5125 13.6275 10.6275C13.5125 10.7425 13.37 10.8 13.2 10.8H9.80001V11.3C10.1556 11.4222 10.4445 11.6384 10.6667 11.9487C10.8889 12.2589 11 12.6092 11 12.9994C11 13.4998 10.825 13.925 10.475 14.275C10.125 14.625 9.70001 14.8 9.20001 14.8Z" fill="#003669"/>
</g>
</svg>
