<svg width="14" height="14" viewBox="0 0 14 14" fill="none" xmlns="http://www.w3.org/2000/svg">
<mask id="mask0_4062_45307" style="mask-type:alpha" maskUnits="userSpaceOnUse" x="0" y="0" width="14" height="14">
<rect width="14" height="14" fill="#D9D9D9"/>
</mask>
<g mask="url(#mask0_4062_45307)">
<path d="M7.93662 11.8657C8.1132 11.8657 8.26244 11.806 8.38433 11.6865C8.50622 11.5671 8.56716 11.419 8.56716 11.2425C8.56716 11.0659 8.50744 10.9167 8.388 10.7948C8.26855 10.6729 8.12054 10.6119 7.94397 10.6119C7.76739 10.6119 7.61816 10.6717 7.49627 10.7911C7.37438 10.9106 7.31343 11.0586 7.31343 11.2351C7.31343 11.4117 7.37315 11.5609 7.49259 11.6828C7.61205 11.8047 7.76006 11.8657 7.93662 11.8657ZM12.1157 5.59702C12.2923 5.59702 12.4415 5.53729 12.5634 5.41785C12.6853 5.2984 12.7463 5.15039 12.7463 4.97382C12.7463 4.79725 12.6865 4.64801 12.5671 4.52612C12.4477 4.40423 12.2996 4.34328 12.1231 4.34328C11.9465 4.34328 11.7973 4.403 11.6754 4.52245C11.5535 4.6419 11.4925 4.78991 11.4925 4.96648C11.4925 5.14305 11.5523 5.29229 11.6717 5.41418C11.7912 5.53607 11.9392 5.59702 12.1157 5.59702ZM5.43284 5.1791C5.61045 5.1791 5.75933 5.11938 5.87948 4.99994C5.99963 4.88049 6.0597 4.73248 6.0597 4.55591C6.0597 4.37933 5.99963 4.2301 5.87948 4.10821C5.75933 3.98632 5.61045 3.92537 5.43284 3.92537H3.13433C2.95672 3.92537 2.80784 3.98509 2.68769 4.10454C2.56754 4.22399 2.50746 4.372 2.50746 4.54857C2.50746 4.72514 2.56754 4.87438 2.68769 4.99627C2.80784 5.11816 2.95672 5.1791 3.13433 5.1791H5.43284ZM5.43284 8.10448C5.61045 8.10448 5.75933 8.04476 5.87948 7.92532C5.99963 7.80586 6.0597 7.65785 6.0597 7.48129C6.0597 7.30471 5.99963 7.15547 5.87948 7.03358C5.75933 6.91169 5.61045 6.85075 5.43284 6.85075H3.13433C2.95672 6.85075 2.80784 6.91047 2.68769 7.02991C2.56754 7.14936 2.50746 7.29737 2.50746 7.47394C2.50746 7.65052 2.56754 7.79975 2.68769 7.92164C2.80784 8.04353 2.95672 8.10448 3.13433 8.10448H5.43284ZM1.25373 11.0299C0.908955 11.0299 0.613806 10.907 0.368284 10.6614C0.122761 10.4157 0 10.1204 0 9.77542V2.2488C0 1.90383 0.122761 1.60945 0.368284 1.36567C0.613806 1.12189 0.908955 1 1.25373 1H12.1194C12.4642 1 12.7593 1.12276 13.0049 1.36828C13.2504 1.61381 13.3731 1.90896 13.3731 2.25373H1.25373V9.77612H4.80597V11.0299H1.25373ZM7.9403 13.1194C7.41791 13.1194 6.97388 12.9367 6.60821 12.5713C6.24254 12.2059 6.0597 11.7621 6.0597 11.2401C6.0597 10.8329 6.17579 10.4668 6.40796 10.1418C6.64013 9.81675 6.94196 9.59038 7.31343 9.46269V8.31343C7.31343 8.13582 7.37351 7.98694 7.49366 7.86679C7.61381 7.74664 7.76269 7.68657 7.9403 7.68657H11.4925V6.74627C11.1211 6.61857 10.8192 6.39266 10.5871 6.06854C10.3549 5.74443 10.2388 5.37849 10.2388 4.97072C10.2388 4.44795 10.4216 4.00373 10.7873 3.63806C11.153 3.27239 11.597 3.08955 12.1194 3.08955C12.6418 3.08955 13.0858 3.27226 13.4515 3.63768C13.8172 4.00309 14 4.44681 14 4.96883C14 5.37601 13.8839 5.74212 13.6517 6.06716C13.4196 6.39221 13.1177 6.61857 12.7463 6.74627V8.31343C12.7463 8.49105 12.6862 8.63993 12.566 8.76008C12.4459 8.88023 12.297 8.9403 12.1194 8.9403H8.56716V9.46269C8.93864 9.59038 9.24047 9.81629 9.47264 10.1404C9.70481 10.4645 9.8209 10.8305 9.8209 11.2382C9.8209 11.761 9.63806 12.2052 9.27239 12.5709C8.90672 12.9366 8.46269 13.1194 7.9403 13.1194Z" fill="#003669"/>
</g>
</svg>
