<svg width="14" height="14" viewBox="0 0 14 14" fill="none" xmlns="http://www.w3.org/2000/svg">
<mask id="mask0_4062_45307" style="mask-type:alpha" maskUnits="userSpaceOnUse" x="0" y="0" width="14" height="14">
<rect width="14" height="14" fill="#D9D9D9"/>
</mask>
<g mask="url(#mask0_4062_45307)">
<path d="M7.81771 10.8862C7.9605 10.8862 8.08117 10.8379 8.17973 10.7413C8.2783 10.6447 8.32758 10.5251 8.32758 10.3823C8.32758 10.2395 8.27929 10.1188 8.18271 10.0203C8.08611 9.9217 7.96643 9.87242 7.82365 9.87242C7.68087 9.87242 7.56019 9.92071 7.46163 10.0173C7.36307 10.1139 7.31379 10.2336 7.31379 10.3763C7.31379 10.5191 7.36208 10.6398 7.45866 10.7384C7.55525 10.8369 7.67494 10.8862 7.81771 10.8862ZM11.197 5.81725C11.3398 5.81725 11.4605 5.76896 11.559 5.67237C11.6576 5.57578 11.7069 5.4561 11.7069 5.31332C11.7069 5.17054 11.6586 5.04986 11.562 4.9513C11.4654 4.85274 11.3457 4.80345 11.203 4.80345C11.0602 4.80345 10.9395 4.85175 10.8409 4.94833C10.7424 5.04492 10.6931 5.1646 10.6931 5.30738C10.6931 5.45017 10.7414 5.57084 10.838 5.6694C10.9346 5.76797 11.0542 5.81725 11.197 5.81725ZM5.7931 5.47932C5.93672 5.47932 6.05711 5.43103 6.15426 5.33444C6.25142 5.23785 6.29999 5.11817 6.29999 4.97539C6.29999 4.83261 6.25142 4.71193 6.15426 4.61337C6.05711 4.5148 5.93672 4.46552 5.7931 4.46552H3.93448C3.79086 4.46552 3.67047 4.51381 3.57331 4.6104C3.47616 4.70699 3.42758 4.82667 3.42758 4.96945C3.42758 5.11223 3.47616 5.23291 3.57331 5.33147C3.67047 5.43003 3.79086 5.47932 3.93448 5.47932H5.7931ZM5.7931 7.84483C5.93672 7.84483 6.05711 7.79654 6.15426 7.69996C6.25142 7.60337 6.29999 7.48368 6.29999 7.34091C6.29999 7.19812 6.25142 7.07745 6.15426 6.97889C6.05711 6.88032 5.93672 6.83104 5.7931 6.83104H3.93448C3.79086 6.83104 3.67047 6.87933 3.57331 6.97591C3.47616 7.07251 3.42758 7.19219 3.42758 7.33497C3.42758 7.47775 3.47616 7.59843 3.57331 7.69699C3.67047 7.79555 3.79086 7.84483 3.93448 7.84483H5.7931ZM2.41379 10.2104C2.13499 10.2104 1.89633 10.111 1.6978 9.91238C1.49926 9.71373 1.39999 9.47494 1.39999 9.196V3.10981C1.39999 2.83086 1.49926 2.59282 1.6978 2.3957C1.89633 2.19857 2.13499 2.10001 2.41379 2.10001H11.2C11.4788 2.10001 11.7174 2.19927 11.916 2.39781C12.1145 2.59634 12.2138 2.83501 12.2138 3.1138H2.41379V9.19656H5.2862V10.2104H2.41379ZM7.82068 11.9C7.39827 11.9 7.03922 11.7523 6.74353 11.4568C6.44784 11.1613 6.29999 10.8025 6.29999 10.3804C6.29999 10.0511 6.39386 9.75508 6.5816 9.49225C6.76934 9.22941 7.0134 9.04637 7.31379 8.94311V8.0138C7.31379 7.87018 7.36236 7.74979 7.45952 7.65264C7.55667 7.55548 7.67706 7.5069 7.82068 7.5069H10.6931V6.74656C10.3927 6.6433 10.1487 6.46063 9.96091 6.19853C9.77317 5.93645 9.6793 5.64054 9.6793 5.31082C9.6793 4.88809 9.82715 4.52889 10.1228 4.2332C10.4185 3.93751 10.7776 3.78966 11.2 3.78966C11.6224 3.78966 11.9815 3.9374 12.2771 4.23289C12.5728 4.52837 12.7207 4.88717 12.7207 5.30928C12.7207 5.63854 12.6268 5.93458 12.4391 6.19742C12.2513 6.46026 12.0073 6.6433 11.7069 6.74656V8.0138C11.7069 8.15742 11.6583 8.27781 11.5612 8.37496C11.464 8.47212 11.3436 8.5207 11.2 8.5207H8.32758V8.94311C8.62796 9.04637 8.87202 9.22904 9.05976 9.49114C9.2475 9.75322 9.34137 10.0491 9.34137 10.3789C9.34137 10.8016 9.19353 11.1608 8.89784 11.4565C8.60215 11.7522 8.2431 11.9 7.82068 11.9Z" fill="#003669"/>
</g>
</svg>
