<svg width="16" height="16" viewBox="0 0 16 16" fill="none" xmlns="http://www.w3.org/2000/svg">
<path d="M12.4761 12.6872L12.2635 11.6446C12.705 11.1248 13.0494 10.5283 13.2778 9.8834L14.282 9.5474C14.7108 9.40394 15 9.00118 15 8.54752L15 7.45248C15 6.99882 14.7108 6.59606 14.282 6.4526L13.2778 6.1166C13.0494 5.47168 12.705 4.87521 12.2635 4.3554L12.4761 3.31279C12.5667 2.86835 12.3638 2.41557 11.9724 2.18874L11.0276 1.64122C10.6362 1.41439 10.1441 1.46441 9.80597 1.7654L9.01348 2.47078C8.68143 2.40982 8.34262 2.3789 8 2.3789C7.65738 2.3789 7.31857 2.40982 6.98652 2.47078L6.19403 1.7654C5.85588 1.46441 5.36379 1.41439 4.97239 1.64122L4.02761 2.18874C3.63621 2.41557 3.43332 2.86835 3.52393 3.31279L3.73648 4.3554C3.29504 4.87521 2.95061 5.47168 2.72218 6.1166L1.71796 6.4526C1.2892 6.59606 1 6.99882 1 7.45248L1 8.54752C1 9.00118 1.2892 9.40394 1.71796 9.5474L2.72218 9.88339C2.95061 10.5283 3.29504 11.1248 3.73648 11.6446L3.52393 12.6872C3.43332 13.1317 3.63621 13.5844 4.02761 13.8113L4.97239 14.3588C5.36379 14.5856 5.85588 14.5356 6.19403 14.2346L6.98652 13.5292C7.31857 13.5902 7.65738 13.6211 8 13.6211C8.34262 13.6211 8.68143 13.5902 9.01348 13.5292L9.80597 14.2346C10.1441 14.5356 10.6362 14.5856 11.0276 14.3588L11.9724 13.8113C12.3638 13.5844 12.5667 13.1317 12.4761 12.6872Z" stroke="#003669" stroke-width="1.75"/>
<path d="M8 10.125C6.82639 10.125 5.875 9.17361 5.875 8C5.875 6.82639 6.82639 5.875 8 5.875C9.17361 5.875 10.125 6.82639 10.125 8C10.125 9.17361 9.17361 10.125 8 10.125Z" stroke="#003669" stroke-width="1.75"/>
</svg>
