<svg width="24" height="24" viewBox="0 0 24 24" fill="none" xmlns="http://www.w3.org/2000/svg">
<mask id="mask0_4062_40751" style="mask-type:alpha" maskUnits="userSpaceOnUse" x="0" y="0" width="24" height="24">
<rect width="24" height="24" fill="#D9D9D9"/>
</mask>
<g mask="url(#mask0_4062_40751)">
<path d="M11.9999 14.95C11.8666 14.95 11.7416 14.9292 11.6249 14.8875C11.5082 14.8458 11.3999 14.775 11.2999 14.675L6.67491 10.05C6.49158 9.86667 6.40408 9.6375 6.41241 9.3625C6.42074 9.0875 6.51658 8.85833 6.69991 8.675C6.88324 8.49167 7.11658 8.4 7.39991 8.4C7.68324 8.4 7.91658 8.49167 8.09991 8.675L11.9999 12.575L15.9249 8.65C16.1082 8.46667 16.3374 8.37917 16.6124 8.3875C16.8874 8.39583 17.1166 8.49167 17.2999 8.675C17.4832 8.85833 17.5749 9.09167 17.5749 9.375C17.5749 9.65833 17.4832 9.89167 17.2999 10.075L12.6999 14.675C12.5999 14.775 12.4916 14.8458 12.3749 14.8875C12.2582 14.9292 12.1332 14.95 11.9999 14.95Z" fill="#1C1B1F"/>
</g>
</svg>
