<svg width="12" height="12" viewBox="0 0 12 12" fill="none" xmlns="http://www.w3.org/2000/svg">
<mask id="mask0_4063_57741" style="mask-type:alpha" maskUnits="userSpaceOnUse" x="0" y="0" width="12" height="12">
<rect width="12" height="12" fill="#D9D9D9"/>
</mask>
<g mask="url(#mask0_4063_57741)">
<path d="M5.99992 9.66292C5.81586 9.66292 5.65526 9.59435 5.51812 9.4572C5.38097 9.32006 5.3124 9.16077 5.3124 8.97932V6.68792H3.021C2.83955 6.68792 2.68026 6.61935 2.54311 6.4822C2.40597 6.34506 2.3374 6.18446 2.3374 6.0004C2.3374 5.81635 2.40597 5.65575 2.54311 5.5186C2.68026 5.38146 2.83955 5.31289 3.021 5.31289H5.3124V3.02149C5.3124 2.84004 5.38097 2.68074 5.51812 2.5436C5.65526 2.40646 5.81586 2.33789 5.99992 2.33789C6.18397 2.33789 6.34457 2.40646 6.48172 2.5436C6.61886 2.68074 6.68743 2.84004 6.68743 3.02149V5.31289H8.97883C9.16028 5.31289 9.31957 5.38146 9.45672 5.5186C9.59386 5.65575 9.66243 5.81635 9.66243 6.0004C9.66243 6.18446 9.59386 6.34506 9.45672 6.4822C9.31957 6.61935 9.16028 6.68792 8.97883 6.68792H6.68743V8.97932C6.68743 9.16077 6.61886 9.32006 6.48172 9.4572C6.34457 9.59435 6.18397 9.66292 5.99992 9.66292Z" fill="#003669"/>
</g>
</svg>
