<svg width="15" height="14" viewBox="0 0 15 14" fill="none" xmlns="http://www.w3.org/2000/svg">
<path d="M7.45097 9.62345C7.41194 9.62448 7.37278 9.625 7.3335 9.625C4.91675 9.625 2.9585 7.66587 2.9585 5.25C2.9585 2.83413 4.91675 0.875 7.3335 0.875C9.75025 0.875 11.7085 2.83413 11.7085 5.25C11.7085 5.62119 11.6623 5.98161 11.5752 6.32579" stroke="#003669" stroke-width="1.75"/>
<path d="M1.2085 14C1.2085 11.375 3.8335 9.625 7.3335 9.625" stroke="#003669" stroke-width="1.75"/>
<path fill-rule="evenodd" clip-rule="evenodd" d="M7.22412 8.53125C7.22412 7.02133 8.44803 5.79688 9.9585 5.79688C11.469 5.79688 12.6929 7.02133 12.6929 8.53125C12.6929 10.0412 11.469 11.2656 9.9585 11.2656C8.44803 11.2656 7.22412 10.0412 7.22412 8.53125Z" stroke="#003669" stroke-width="1.75"/>
<path d="M6.13037 14C6.13037 12.3594 7.771 11.2656 9.9585 11.2656C12.146 11.2656 13.7866 12.3594 13.7866 14" stroke="#003669" stroke-width="1.75"/>
</svg>
