<svg width="40" height="40" viewBox="0 0 40 40" fill="none" xmlns="http://www.w3.org/2000/svg">
<g clip-path="url(#clip0_11_354)">
<mask id="mask0_11_354" style="mask-type:luminance" maskUnits="userSpaceOnUse" x="0" y="0" width="40" height="40">
<path d="M34 0H6C2.68629 0 0 2.68629 0 6V34C0 37.3137 2.68629 40 6 40H34C37.3137 40 40 37.3137 40 34V6C40 2.68629 37.3137 0 34 0Z" fill="white"/>
</mask>
<g mask="url(#mask0_11_354)">
<path d="M34 0H6C2.68629 0 0 2.68629 0 6V34C0 37.3137 2.68629 40 6 40H34C37.3137 40 40 37.3137 40 34V6C40 2.68629 37.3137 0 34 0Z" fill="white"/>
<mask id="mask1_11_354" style="mask-type:luminance" maskUnits="userSpaceOnUse" x="0" y="0" width="40" height="40">
<path d="M40 0H0V40H40V0Z" fill="white"/>
</mask>
<g mask="url(#mask1_11_354)">
<path d="M40 0H0V40H40V0Z" fill="white"/>
<path d="M40 0H0V40H40V0Z" fill="url(#paint0_linear_11_354)"/>
<path opacity="0.3" d="M19.3242 -23.3394L-23.665 19.6499L-1.72545 41.5895L41.2638 -1.39976L19.3242 -23.3394Z" fill="url(#paint1_linear_11_354)"/>
<path opacity="0.3" d="M12.9795 -29.6841L-30.0098 13.3052L-7.38235 35.9326L35.6069 -7.05667L12.9795 -29.6841Z" fill="url(#paint2_linear_11_354)"/>
<path opacity="0.3" d="M12.9795 -29.6841L-30.0098 13.3052L-13.0392 30.2757L29.9501 -12.7135L12.9795 -29.6841Z" fill="url(#paint3_linear_11_354)"/>
</g>
</g>
<path d="M14.6537 26.92V12.0836H20.0869C21.1398 12.0836 22.0115 12.2575 22.7021 12.6052C23.3928 12.9481 23.9095 13.4142 24.2524 14.0034C24.5953 14.5878 24.7668 15.247 24.7668 15.9811C24.7668 16.5993 24.6533 17.1208 24.4263 17.5458C24.1993 17.966 23.895 18.3041 23.5135 18.5601C23.1368 18.8112 22.7214 18.9947 22.2675 19.1106V19.2555C22.7601 19.2797 23.2406 19.439 23.7091 19.7336C24.1824 20.0234 24.5736 20.4364 24.8827 20.9724C25.1918 21.5085 25.3463 22.1605 25.3463 22.9284C25.3463 23.6866 25.1676 24.3676 24.8102 24.9713C24.4577 25.5702 23.9119 26.0458 23.173 26.3984C22.4341 26.7462 21.4899 26.92 20.3405 26.92H14.6537ZM16.8922 25.0003H20.1232C21.1953 25.0003 21.9632 24.7926 22.4268 24.3772C22.8905 23.9619 23.1223 23.4427 23.1223 22.8197C23.1223 22.3512 23.004 21.9214 22.7673 21.5302C22.5307 21.139 22.1926 20.8275 21.7531 20.5957C21.3184 20.3639 20.8017 20.248 20.2028 20.248H16.8922V25.0003ZM16.8922 18.5021H19.8913C20.3936 18.5021 20.8452 18.4055 21.246 18.2123C21.6517 18.0192 21.9729 17.7487 22.2095 17.401C22.451 17.0484 22.5717 16.6331 22.5717 16.155C22.5717 15.5416 22.3568 15.0272 21.927 14.6119C21.4972 14.1966 20.8379 13.9889 19.9493 13.9889H16.8922V18.5021Z" fill="white"/>
</g>
<defs>
<linearGradient id="paint0_linear_11_354" x1="40" y1="40" x2="0" y2="0" gradientUnits="userSpaceOnUse">
<stop stop-color="#F92572"/>
<stop offset="1" stop-color="#006AB7"/>
</linearGradient>
<linearGradient id="paint1_linear_11_354" x1="41.2639" y1="-1.3997" x2="-13.6112" y2="-18.062" gradientUnits="userSpaceOnUse">
<stop stop-color="white" stop-opacity="0.6"/>
<stop offset="1" stop-color="white" stop-opacity="0"/>
</linearGradient>
<linearGradient id="paint2_linear_11_354" x1="35.607" y1="-7.05667" x2="-20.8087" y2="-23.3926" gradientUnits="userSpaceOnUse">
<stop stop-color="white" stop-opacity="0.6"/>
<stop offset="1" stop-color="white" stop-opacity="0"/>
</linearGradient>
<linearGradient id="paint3_linear_11_354" x1="29.9501" y1="-12.7136" x2="-12.977" y2="-30.5388" gradientUnits="userSpaceOnUse">
<stop stop-color="white" stop-opacity="0.6"/>
<stop offset="0.9999" stop-color="#F7DE00" stop-opacity="0.16875"/>
<stop offset="1" stop-color="white" stop-opacity="0"/>
</linearGradient>
<clipPath id="clip0_11_354">
<rect width="40" height="40" fill="white"/>
</clipPath>
</defs>
</svg>
