<svg width="40" height="40" viewBox="0 0 40 40" fill="none" xmlns="http://www.w3.org/2000/svg">
<g clip-path="url(#clip0_11_354)">
<mask id="mask0_11_354" style="mask-type:luminance" maskUnits="userSpaceOnUse" x="0" y="0" width="40" height="40">
<path d="M34 0H6C2.68629 0 0 2.68629 0 6V34C0 37.3137 2.68629 40 6 40H34C37.3137 40 40 37.3137 40 34V6C40 2.68629 37.3137 0 34 0Z" fill="white"/>
</mask>
<g mask="url(#mask0_11_354)">
<path d="M34 0H6C2.68629 0 0 2.68629 0 6V34C0 37.3137 2.68629 40 6 40H34C37.3137 40 40 37.3137 40 34V6C40 2.68629 37.3137 0 34 0Z" fill="white"/>
<mask id="mask1_11_354" style="mask-type:luminance" maskUnits="userSpaceOnUse" x="0" y="0" width="40" height="40">
<path d="M40 0H0V40H40V0Z" fill="white"/>
</mask>
<g mask="url(#mask1_11_354)">
<path d="M40 0H0V40H40V0Z" fill="white"/>
<path d="M40 0H0V40H40V0Z" fill="url(#paint0_linear_11_354)"/>
<path opacity="0.3" d="M19.3242 -23.3394L-23.665 19.6499L-1.72545 41.5895L41.2638 -1.39976L19.3242 -23.3394Z" fill="url(#paint1_linear_11_354)"/>
<path opacity="0.3" d="M12.9795 -29.6841L-30.0098 13.3052L-7.38235 35.9326L35.6069 -7.05667L12.9795 -29.6841Z" fill="url(#paint2_linear_11_354)"/>
<path opacity="0.3" d="M12.9795 -29.6841L-30.0098 13.3052L-13.0392 30.2757L29.9501 -12.7135L12.9795 -29.6841Z" fill="url(#paint3_linear_11_354)"/>
</g>
</g>
<path d="M26.4004 16.9084H24.1401C24.0532 16.4254 23.8914 16.0004 23.6548 15.6334C23.4181 15.2663 23.1283 14.9548 22.7854 14.6988C22.4425 14.4429 22.0586 14.2497 21.6336 14.1193C21.2134 13.9889 20.7667 13.9237 20.2934 13.9237C19.4386 13.9237 18.6731 14.1386 17.9969 14.5684C17.3256 14.9982 16.7944 15.6285 16.4032 16.4592C16.0168 17.2899 15.8236 18.3041 15.8236 19.5018C15.8236 20.7092 16.0168 21.7282 16.4032 22.5589C16.7944 23.3896 17.328 24.0174 18.0042 24.4424C18.6803 24.8674 19.441 25.0799 20.2862 25.0799C20.7546 25.0799 21.1989 25.0172 21.6191 24.8916C22.0441 24.7612 22.428 24.5704 22.771 24.3193C23.1138 24.0682 23.4036 23.7615 23.6402 23.3992C23.8817 23.0322 24.0484 22.612 24.1401 22.1388L26.4004 22.146C26.2796 22.8752 26.0454 23.5466 25.6976 24.1599C25.3548 24.7684 24.9128 25.2948 24.3719 25.7392C23.8358 26.1786 23.2225 26.5191 22.5319 26.7606C21.8412 27.0021 21.0878 27.1228 20.2716 27.1228C18.987 27.1228 17.8424 26.8186 16.8378 26.21C15.8333 25.5967 15.0412 24.7201 14.4617 23.5804C13.887 22.4406 13.5996 21.0811 13.5996 19.5018C13.5996 17.9177 13.8894 16.5582 14.469 15.4232C15.0485 14.2835 15.8406 13.4093 16.8451 12.8008C17.8496 12.1875 18.9918 11.8808 20.2716 11.8808C21.0589 11.8808 21.793 11.9943 22.4739 12.2213C23.1597 12.4434 23.7755 12.7718 24.3212 13.2065C24.867 13.6363 25.3185 14.1628 25.6759 14.7858C26.0333 15.404 26.2748 16.1115 26.4004 16.9084Z" fill="white"/>
</g>
<defs>
<linearGradient id="paint0_linear_11_354" x1="40" y1="40" x2="0" y2="0" gradientUnits="userSpaceOnUse">
<stop stop-color="#F92572"/>
<stop offset="1" stop-color="#006AB7"/>
</linearGradient>
<linearGradient id="paint1_linear_11_354" x1="41.2639" y1="-1.3997" x2="-13.6112" y2="-18.062" gradientUnits="userSpaceOnUse">
<stop stop-color="white" stop-opacity="0.6"/>
<stop offset="1" stop-color="white" stop-opacity="0"/>
</linearGradient>
<linearGradient id="paint2_linear_11_354" x1="35.607" y1="-7.05667" x2="-20.8087" y2="-23.3926" gradientUnits="userSpaceOnUse">
<stop stop-color="white" stop-opacity="0.6"/>
<stop offset="1" stop-color="white" stop-opacity="0"/>
</linearGradient>
<linearGradient id="paint3_linear_11_354" x1="29.9501" y1="-12.7136" x2="-12.977" y2="-30.5388" gradientUnits="userSpaceOnUse">
<stop stop-color="white" stop-opacity="0.6"/>
<stop offset="0.9999" stop-color="#F7DE00" stop-opacity="0.16875"/>
<stop offset="1" stop-color="white" stop-opacity="0"/>
</linearGradient>
<clipPath id="clip0_11_354">
<rect width="40" height="40" fill="white"/>
</clipPath>
</defs>
</svg>
