<svg width="40" height="40" viewBox="0 0 40 40" fill="none" xmlns="http://www.w3.org/2000/svg">
<g clip-path="url(#clip0_11_354)">
<mask id="mask0_11_354" style="mask-type:luminance" maskUnits="userSpaceOnUse" x="0" y="0" width="40" height="40">
<path d="M34 0H6C2.68629 0 0 2.68629 0 6V34C0 37.3137 2.68629 40 6 40H34C37.3137 40 40 37.3137 40 34V6C40 2.68629 37.3137 0 34 0Z" fill="white"/>
</mask>
<g mask="url(#mask0_11_354)">
<path d="M34 0H6C2.68629 0 0 2.68629 0 6V34C0 37.3137 2.68629 40 6 40H34C37.3137 40 40 37.3137 40 34V6C40 2.68629 37.3137 0 34 0Z" fill="white"/>
<mask id="mask1_11_354" style="mask-type:luminance" maskUnits="userSpaceOnUse" x="0" y="0" width="40" height="40">
<path d="M40 0H0V40H40V0Z" fill="white"/>
</mask>
<g mask="url(#mask1_11_354)">
<path d="M40 0H0V40H40V0Z" fill="white"/>
<path d="M40 0H0V40H40V0Z" fill="url(#paint0_linear_11_354)"/>
<path opacity="0.3" d="M19.3242 -23.3394L-23.665 19.6499L-1.72548 41.5895L41.2638 -1.39976L19.3242 -23.3394Z" fill="url(#paint1_linear_11_354)"/>
<path opacity="0.3" d="M12.9795 -29.6841L-30.0098 13.3052L-7.38238 35.9326L35.6069 -7.05667L12.9795 -29.6841Z" fill="url(#paint2_linear_11_354)"/>
<path opacity="0.3" d="M12.9795 -29.6841L-30.0098 13.3052L-13.0392 30.2757L29.9501 -12.7135L12.9795 -29.6841Z" fill="url(#paint3_linear_11_354)"/>
</g>
</g>
<path d="M24.0605 16.7707C23.9204 16.3312 23.732 15.9376 23.4954 15.5899C23.2636 15.2373 22.9859 14.9379 22.6623 14.6916C22.3387 14.4404 21.9693 14.2497 21.5539 14.1193C21.1434 13.9889 20.6918 13.9237 20.1992 13.9237C19.3637 13.9237 18.6103 14.1386 17.939 14.5684C17.2677 14.9982 16.7364 15.6285 16.3453 16.4592C15.9589 17.285 15.7657 18.2968 15.7657 19.4946C15.7657 20.6971 15.9613 21.7138 16.3525 22.5444C16.7437 23.3751 17.2798 24.0054 17.9607 24.4352C18.6417 24.865 19.4168 25.0799 20.2861 25.0799C21.0927 25.0799 21.7954 24.9157 22.3943 24.5873C22.9979 24.2589 23.464 23.7953 23.7924 23.1964C24.1257 22.5927 24.2923 21.8828 24.2923 21.0666L24.8718 21.1752H20.6266V19.328H26.4583V21.0159C26.4583 22.2619 26.1927 23.3437 25.6614 24.2613C25.135 25.1741 24.4057 25.8792 23.4737 26.3767C22.5464 26.8741 21.4839 27.1228 20.2861 27.1228C18.9435 27.1228 17.7651 26.8138 16.7509 26.1956C15.7415 25.5774 14.9543 24.7008 14.3893 23.5659C13.8242 22.4261 13.5417 21.0738 13.5417 19.509C13.5417 18.3258 13.7059 17.2633 14.0343 16.3216C14.3627 15.3798 14.8239 14.5805 15.418 13.9237C16.0168 13.262 16.7195 12.7574 17.5261 12.4096C18.3374 12.0571 19.2237 11.8808 20.1847 11.8808C20.9864 11.8808 21.7326 11.9991 22.4232 12.2358C23.1187 12.4724 23.7369 12.808 24.2778 13.2427C24.8235 13.6774 25.2751 14.1941 25.6325 14.793C25.9899 15.387 26.2313 16.0463 26.3569 16.7707H24.0605Z" fill="white"/>
</g>
<defs>
<linearGradient id="paint0_linear_11_354" x1="40" y1="40" x2="0" y2="0" gradientUnits="userSpaceOnUse">
<stop stop-color="#F92572"/>
<stop offset="1" stop-color="#006AB7"/>
</linearGradient>
<linearGradient id="paint1_linear_11_354" x1="41.2639" y1="-1.3997" x2="-13.6112" y2="-18.062" gradientUnits="userSpaceOnUse">
<stop stop-color="white" stop-opacity="0.6"/>
<stop offset="1" stop-color="white" stop-opacity="0"/>
</linearGradient>
<linearGradient id="paint2_linear_11_354" x1="35.607" y1="-7.05667" x2="-20.8087" y2="-23.3926" gradientUnits="userSpaceOnUse">
<stop stop-color="white" stop-opacity="0.6"/>
<stop offset="1" stop-color="white" stop-opacity="0"/>
</linearGradient>
<linearGradient id="paint3_linear_11_354" x1="29.9501" y1="-12.7136" x2="-12.977" y2="-30.5388" gradientUnits="userSpaceOnUse">
<stop stop-color="white" stop-opacity="0.6"/>
<stop offset="0.9999" stop-color="#F7DE00" stop-opacity="0.16875"/>
<stop offset="1" stop-color="white" stop-opacity="0"/>
</linearGradient>
<clipPath id="clip0_11_354">
<rect width="40" height="40" fill="white"/>
</clipPath>
</defs>
</svg>
