<svg width="40" height="40" viewBox="0 0 40 40" fill="none" xmlns="http://www.w3.org/2000/svg">
<g clip-path="url(#clip0_11_354)">
<mask id="mask0_11_354" style="mask-type:luminance" maskUnits="userSpaceOnUse" x="0" y="0" width="40" height="40">
<path d="M34 0H6C2.68629 0 0 2.68629 0 6V34C0 37.3137 2.68629 40 6 40H34C37.3137 40 40 37.3137 40 34V6C40 2.68629 37.3137 0 34 0Z" fill="white"/>
</mask>
<g mask="url(#mask0_11_354)">
<path d="M34 0H6C2.68629 0 0 2.68629 0 6V34C0 37.3137 2.68629 40 6 40H34C37.3137 40 40 37.3137 40 34V6C40 2.68629 37.3137 0 34 0Z" fill="white"/>
<mask id="mask1_11_354" style="mask-type:luminance" maskUnits="userSpaceOnUse" x="0" y="0" width="40" height="40">
<path d="M40 0H0V40H40V0Z" fill="white"/>
</mask>
<g mask="url(#mask1_11_354)">
<path d="M40 0H0V40H40V0Z" fill="white"/>
<path d="M40 0H0V40H40V0Z" fill="url(#paint0_linear_11_354)"/>
<path opacity="0.3" d="M19.3242 -23.3394L-23.665 19.6499L-1.72548 41.5895L41.2638 -1.39976L19.3242 -23.3394Z" fill="url(#paint1_linear_11_354)"/>
<path opacity="0.3" d="M12.9795 -29.6841L-30.0098 13.3052L-7.38238 35.9326L35.6069 -7.05667L12.9795 -29.6841Z" fill="url(#paint2_linear_11_354)"/>
<path opacity="0.3" d="M12.9795 -29.6841L-30.0098 13.3052L-13.0392 30.2757L29.9501 -12.7135L12.9795 -29.6841Z" fill="url(#paint3_linear_11_354)"/>
</g>
</g>
<path d="M22.224 12.0836H24.4553V22.6024C24.4553 23.5538 24.2669 24.3676 23.8902 25.0437C23.5183 25.7199 22.9943 26.2366 22.3182 26.594C21.642 26.9466 20.85 27.1228 19.942 27.1228C19.1065 27.1228 18.3555 26.9707 17.6891 26.6664C17.0274 26.3622 16.5034 25.9203 16.117 25.3408C15.7355 24.7564 15.5447 24.0464 15.5447 23.2109H17.7687C17.7687 23.6214 17.8629 23.9764 18.0513 24.2758C18.2445 24.5753 18.5077 24.8095 18.8409 24.9785C19.179 25.1427 19.5653 25.2248 20 25.2248C20.4733 25.2248 20.8741 25.1258 21.2025 24.9278C21.5358 24.725 21.7893 24.428 21.9632 24.0368C22.1371 23.6456 22.224 23.1674 22.224 22.6024V12.0836Z" fill="white"/>
</g>
<defs>
<linearGradient id="paint0_linear_11_354" x1="40" y1="40" x2="0" y2="0" gradientUnits="userSpaceOnUse">
<stop stop-color="#F92572"/>
<stop offset="1" stop-color="#006AB7"/>
</linearGradient>
<linearGradient id="paint1_linear_11_354" x1="41.2639" y1="-1.3997" x2="-13.6112" y2="-18.062" gradientUnits="userSpaceOnUse">
<stop stop-color="white" stop-opacity="0.6"/>
<stop offset="1" stop-color="white" stop-opacity="0"/>
</linearGradient>
<linearGradient id="paint2_linear_11_354" x1="35.607" y1="-7.05667" x2="-20.8087" y2="-23.3926" gradientUnits="userSpaceOnUse">
<stop stop-color="white" stop-opacity="0.6"/>
<stop offset="1" stop-color="white" stop-opacity="0"/>
</linearGradient>
<linearGradient id="paint3_linear_11_354" x1="29.9501" y1="-12.7136" x2="-12.977" y2="-30.5388" gradientUnits="userSpaceOnUse">
<stop stop-color="white" stop-opacity="0.6"/>
<stop offset="0.9999" stop-color="#F7DE00" stop-opacity="0.16875"/>
<stop offset="1" stop-color="white" stop-opacity="0"/>
</linearGradient>
<clipPath id="clip0_11_354">
<rect width="40" height="40" fill="white"/>
</clipPath>
</defs>
</svg>
