<svg width="40" height="40" viewBox="0 0 40 40" fill="none" xmlns="http://www.w3.org/2000/svg">
<g clip-path="url(#clip0_11_354)">
<mask id="mask0_11_354" style="mask-type:luminance" maskUnits="userSpaceOnUse" x="0" y="0" width="40" height="40">
<path d="M34 0H6C2.68629 0 0 2.68629 0 6V34C0 37.3137 2.68629 40 6 40H34C37.3137 40 40 37.3137 40 34V6C40 2.68629 37.3137 0 34 0Z" fill="white"/>
</mask>
<g mask="url(#mask0_11_354)">
<path d="M34 0H6C2.68629 0 0 2.68629 0 6V34C0 37.3137 2.68629 40 6 40H34C37.3137 40 40 37.3137 40 34V6C40 2.68629 37.3137 0 34 0Z" fill="white"/>
<mask id="mask1_11_354" style="mask-type:luminance" maskUnits="userSpaceOnUse" x="0" y="0" width="40" height="40">
<path d="M40 0H0V40H40V0Z" fill="white"/>
</mask>
<g mask="url(#mask1_11_354)">
<path d="M40 0H0V40H40V0Z" fill="white"/>
<path d="M40 0H0V40H40V0Z" fill="url(#paint0_linear_11_354)"/>
<path opacity="0.3" d="M19.3243 -23.3394L-23.6649 19.6499L-1.72536 41.5895L41.2639 -1.39976L19.3243 -23.3394Z" fill="url(#paint1_linear_11_354)"/>
<path opacity="0.3" d="M12.9795 -29.6841L-30.0098 13.3052L-7.38232 35.9326L35.6069 -7.05667L12.9795 -29.6841Z" fill="url(#paint2_linear_11_354)"/>
<path opacity="0.3" d="M12.9795 -29.6841L-30.0098 13.3052L-13.0392 30.2757L29.9501 -12.7135L12.9795 -29.6841Z" fill="url(#paint3_linear_11_354)"/>
</g>
</g>
<path d="M26.6829 19.5018C26.6829 21.0859 26.3931 22.4478 25.8136 23.5876C25.2341 24.7226 24.4396 25.5967 23.4302 26.21C22.4257 26.8186 21.2835 27.1228 20.0037 27.1228C18.719 27.1228 17.572 26.8186 16.5626 26.21C15.5581 25.5967 14.766 24.7201 14.1865 23.5804C13.6069 22.4406 13.3171 21.0811 13.3171 19.5018C13.3171 17.9177 13.6069 16.5582 14.1865 15.4232C14.766 14.2835 15.5581 13.4093 16.5626 12.8008C17.572 12.1875 18.719 11.8808 20.0037 11.8808C21.2835 11.8808 22.4257 12.1875 23.4302 12.8008C24.4396 13.4093 25.2341 14.2835 25.8136 15.4232C26.3931 16.5582 26.6829 17.9177 26.6829 19.5018ZM24.4661 19.5018C24.4661 18.2944 24.2705 17.2778 23.8793 16.452C23.493 15.6213 22.9617 14.9934 22.2856 14.5684C21.6143 14.1386 20.8537 13.9237 20.0037 13.9237C19.1488 13.9237 18.3857 14.1386 17.7145 14.5684C17.0431 14.9934 16.5119 15.6213 16.1207 16.452C15.7343 17.2778 15.5411 18.2944 15.5411 19.5018C15.5411 20.7092 15.7343 21.7282 16.1207 22.5589C16.5119 23.3848 17.0431 24.0126 17.7145 24.4424C18.3857 24.8674 19.1488 25.0799 20.0037 25.0799C20.8537 25.0799 21.6143 24.8674 22.2856 24.4424C22.9617 24.0126 23.493 23.3848 23.8793 22.5589C24.2705 21.7282 24.4661 20.7092 24.4661 19.5018Z" fill="white"/>
</g>
<defs>
<linearGradient id="paint0_linear_11_354" x1="40" y1="40" x2="0" y2="0" gradientUnits="userSpaceOnUse">
<stop stop-color="#F92572"/>
<stop offset="1" stop-color="#006AB7"/>
</linearGradient>
<linearGradient id="paint1_linear_11_354" x1="41.264" y1="-1.3997" x2="-13.6111" y2="-18.062" gradientUnits="userSpaceOnUse">
<stop stop-color="white" stop-opacity="0.6"/>
<stop offset="1" stop-color="white" stop-opacity="0"/>
</linearGradient>
<linearGradient id="paint2_linear_11_354" x1="35.607" y1="-7.05667" x2="-20.8087" y2="-23.3926" gradientUnits="userSpaceOnUse">
<stop stop-color="white" stop-opacity="0.6"/>
<stop offset="1" stop-color="white" stop-opacity="0"/>
</linearGradient>
<linearGradient id="paint3_linear_11_354" x1="29.9501" y1="-12.7136" x2="-12.977" y2="-30.5388" gradientUnits="userSpaceOnUse">
<stop stop-color="white" stop-opacity="0.6"/>
<stop offset="0.9999" stop-color="#F7DE00" stop-opacity="0.16875"/>
<stop offset="1" stop-color="white" stop-opacity="0"/>
</linearGradient>
<clipPath id="clip0_11_354">
<rect width="40" height="40" fill="white"/>
</clipPath>
</defs>
</svg>
