<svg width="40" height="40" viewBox="0 0 40 40" fill="none" xmlns="http://www.w3.org/2000/svg">
<g clip-path="url(#clip0_11_354)">
<mask id="mask0_11_354" style="mask-type:luminance" maskUnits="userSpaceOnUse" x="0" y="0" width="40" height="40">
<path d="M34 0H6C2.68629 0 0 2.68629 0 6V34C0 37.3137 2.68629 40 6 40H34C37.3137 40 40 37.3137 40 34V6C40 2.68629 37.3137 0 34 0Z" fill="white"/>
</mask>
<g mask="url(#mask0_11_354)">
<path d="M34 0H6C2.68629 0 0 2.68629 0 6V34C0 37.3137 2.68629 40 6 40H34C37.3137 40 40 37.3137 40 34V6C40 2.68629 37.3137 0 34 0Z" fill="white"/>
<mask id="mask1_11_354" style="mask-type:luminance" maskUnits="userSpaceOnUse" x="0" y="0" width="40" height="40">
<path d="M40 0H0V40H40V0Z" fill="white"/>
</mask>
<g mask="url(#mask1_11_354)">
<path d="M40 0H0V40H40V0Z" fill="white"/>
<path d="M40 0H0V40H40V0Z" fill="url(#paint0_linear_11_354)"/>
<path opacity="0.3" d="M19.3242 -23.3394L-23.665 19.6499L-1.72548 41.5895L41.2638 -1.39976L19.3242 -23.3394Z" fill="url(#paint1_linear_11_354)"/>
<path opacity="0.3" d="M12.9795 -29.6841L-30.0098 13.3052L-7.38232 35.9326L35.6069 -7.05667L12.9795 -29.6841Z" fill="url(#paint2_linear_11_354)"/>
<path opacity="0.3" d="M12.9795 -29.6841L-30.0098 13.3052L-13.0392 30.2757L29.9501 -12.7135L12.9795 -29.6841Z" fill="url(#paint3_linear_11_354)"/>
</g>
</g>
<path d="M23.1584 15.9811C23.0812 15.2953 22.7624 14.764 22.2022 14.3873C21.642 14.0058 20.9369 13.815 20.0869 13.815C19.4783 13.815 18.9519 13.9116 18.5076 14.1048C18.0633 14.2932 17.7179 14.554 17.4717 14.8872C17.2302 15.2156 17.1094 15.5899 17.1094 16.01C17.1094 16.3626 17.1915 16.6669 17.3557 16.9228C17.5248 17.1788 17.7445 17.3937 18.015 17.5676C18.2903 17.7366 18.5849 17.8791 18.8988 17.995C19.2127 18.1061 19.5145 18.1978 19.8043 18.2703L21.2532 18.647C21.7265 18.7629 22.2119 18.9198 22.7093 19.1179C23.2067 19.3159 23.6679 19.5767 24.0929 19.9002C24.5179 20.2238 24.8609 20.6247 25.1217 21.1028C25.3873 21.5809 25.5201 22.1532 25.5201 22.8197C25.5201 23.66 25.3027 24.4062 24.8681 25.0582C24.4383 25.7102 23.8129 26.2245 22.9918 26.6012C22.1756 26.978 21.188 27.1663 20.0289 27.1663C18.9181 27.1663 17.957 26.99 17.1457 26.6375C16.3343 26.2849 15.6992 25.785 15.2404 25.1379C14.7816 24.4859 14.5281 23.7132 14.4797 22.8197H16.7255C16.7689 23.3558 16.9428 23.8025 17.2471 24.1599C17.5562 24.5125 17.9498 24.7757 18.4279 24.9495C18.9109 25.1186 19.4397 25.2031 20.0144 25.2031C20.6471 25.2031 21.2097 25.1041 21.7023 24.9061C22.1998 24.7032 22.591 24.4231 22.8759 24.0657C23.1609 23.7035 23.3033 23.2809 23.3033 22.798C23.3033 22.3585 23.1777 21.9987 22.9266 21.7186C22.6803 21.4384 22.3447 21.2066 21.9197 21.0231C21.4995 20.8396 21.0238 20.6778 20.4925 20.5378L18.7394 20.0596C17.5513 19.736 16.6096 19.2603 15.9141 18.6325C15.2235 18.0046 14.8782 17.174 14.8782 16.1404C14.8782 15.2856 15.11 14.5394 15.5736 13.902C16.0373 13.2644 16.6651 12.7694 17.4572 12.4169C18.2492 12.0595 19.1427 11.8808 20.1375 11.8808C21.1421 11.8808 22.0283 12.0571 22.7962 12.4096C23.5689 12.7622 24.1775 13.2476 24.6218 13.8657C25.0661 14.4791 25.2979 15.1842 25.3173 15.9811H23.1584Z" fill="white"/>
</g>
<defs>
<linearGradient id="paint0_linear_11_354" x1="40" y1="40" x2="0" y2="0" gradientUnits="userSpaceOnUse">
<stop stop-color="#F92572"/>
<stop offset="1" stop-color="#006AB7"/>
</linearGradient>
<linearGradient id="paint1_linear_11_354" x1="41.2639" y1="-1.3997" x2="-13.6112" y2="-18.062" gradientUnits="userSpaceOnUse">
<stop stop-color="white" stop-opacity="0.6"/>
<stop offset="1" stop-color="white" stop-opacity="0"/>
</linearGradient>
<linearGradient id="paint2_linear_11_354" x1="35.607" y1="-7.05667" x2="-20.8087" y2="-23.3926" gradientUnits="userSpaceOnUse">
<stop stop-color="white" stop-opacity="0.6"/>
<stop offset="1" stop-color="white" stop-opacity="0"/>
</linearGradient>
<linearGradient id="paint3_linear_11_354" x1="29.9501" y1="-12.7136" x2="-12.977" y2="-30.5388" gradientUnits="userSpaceOnUse">
<stop stop-color="white" stop-opacity="0.6"/>
<stop offset="0.9999" stop-color="#F7DE00" stop-opacity="0.16875"/>
<stop offset="1" stop-color="white" stop-opacity="0"/>
</linearGradient>
<clipPath id="clip0_11_354">
<rect width="40" height="40" fill="white"/>
</clipPath>
</defs>
</svg>
