<svg width="12" height="12" viewBox="0 0 12 12" fill="none" xmlns="http://www.w3.org/2000/svg">
<g clip-path="url(#clip0_1839_13217)">
<path fill-rule="evenodd" clip-rule="evenodd" d="M6.62131 3.70703C7.43361 3.92661 8.07333 4.56633 8.29291 5.37863L6.62131 3.70703ZM4.36406 4.27821C3.90881 4.71091 3.625 5.32228 3.625 5.99994C3.625 7.31161 4.68832 8.37494 6 8.37494C6.67766 8.37494 7.28903 8.09112 7.72173 7.63588L6.48276 6.39691C6.36813 6.53615 6.19443 6.62494 6 6.62494C5.65482 6.62494 5.375 6.34512 5.375 5.99994C5.375 5.8055 5.46379 5.63181 5.60302 5.51718L4.36406 4.27821Z" fill="#003669"/>
<path fill-rule="evenodd" clip-rule="evenodd" d="M10.8555 7.9413C11.1283 7.63554 11.3573 7.3493 11.5355 7.11347C11.6779 6.92508 11.7893 6.76696 11.8662 6.65416C11.9047 6.59771 11.9347 6.55247 11.9557 6.5203L11.9804 6.48205L11.9876 6.47068L11.99 6.46701L11.9908 6.46569L11.9911 6.46515C11.9913 6.46492 11.9914 6.46471 11.25 6L11.9914 6.46471C12.1695 6.18051 12.1695 5.81949 11.9914 5.53529L11.25 6C11.9914 5.53529 11.9913 5.53508 11.9911 5.53485L11.9908 5.53431L11.99 5.53299L11.9876 5.52932L11.9804 5.51795L11.9557 5.4797C11.9347 5.44753 11.9047 5.40229 11.8662 5.34584C11.7893 5.23304 11.6779 5.07492 11.5355 4.88653C11.2519 4.51123 10.8398 4.0083 10.3269 3.50218C9.33732 2.52569 7.80946 1.375 6 1.375C5.48748 1.375 4.99756 1.46732 4.53606 1.62184L6.03953 3.12532C7.11653 3.14254 8.19818 3.86017 9.09772 4.74782C9.53488 5.1792 9.89161 5.61376 10.1393 5.94159L10.1832 6L10.1393 6.05841C9.99835 6.24497 9.82207 6.4661 9.61576 6.70154L10.8555 7.9413ZM3.95358 3.8678C3.58487 4.12107 3.23138 4.42307 2.90228 4.74782C2.46512 5.1792 2.1084 5.61377 1.86067 5.94159L1.81683 6L1.86067 6.05841C2.1084 6.38623 2.46512 6.8208 2.90228 7.25218C3.81283 8.15069 4.90996 8.875 6 8.875C6.73211 8.875 7.46742 8.54827 8.14725 8.06147L9.39794 9.31215C8.47927 10.0183 7.31387 10.625 6 10.625C4.19054 10.625 2.66268 9.47431 1.6731 8.49782C1.1602 7.9917 0.748076 7.48877 0.464475 7.11347C0.322117 6.92508 0.210719 6.76696 0.133784 6.65416C0.095284 6.59771 0.06532 6.55247 0.0443303 6.5203L0.0196003 6.48205L0.0123659 6.47068L0.0100479 6.46701L0.00921571 6.46569L0.00888163 6.46515C0.0087375 6.46492 0.00860232 6.46471 0.75 6C0.00860232 5.53529 0.0087375 5.53508 0.00888163 5.53485L0.00921571 5.53431L0.0100479 5.53299L0.0123659 5.52932L0.0196003 5.51795L0.0443303 5.4797C0.06532 5.44753 0.095284 5.40229 0.133784 5.34584C0.210719 5.23304 0.322117 5.07492 0.464475 4.88653C0.748076 4.51123 1.1602 4.0083 1.6731 3.50218C1.96935 3.20985 2.31384 2.90191 2.69968 2.6139L3.95358 3.8678ZM0.75 6L0.00860232 6.46471C-0.169534 6.18051 -0.169534 5.81949 0.00860232 5.53529L0.75 6Z" fill="#003669"/>
<path d="M1.5 1.5L10.5 10.5" stroke="#003669" stroke-width="1.75"/>
</g>
<defs>
<clipPath id="clip0_1839_13217">
<rect width="12" height="12" fill="white"/>
</clipPath>
</defs>
</svg>
