<svg width="12" height="17" viewBox="0 0 12 17" fill="none" xmlns="http://www.w3.org/2000/svg">
<path d="M1.75034 16.5839C1.38035 16.5839 1.06555 16.453 0.805941 16.1913C0.546316 15.9296 0.416504 15.6139 0.416504 15.2442V7.75703C0.416504 7.38726 0.547358 7.07153 0.809066 6.80984C1.07076 6.54813 1.38649 6.41728 1.75625 6.41728H2.4165V4.41728C2.4165 3.4228 2.76557 2.57697 3.46369 1.87978C4.1618 1.18258 5.00875 0.833984 6.00453 0.833984C7.0003 0.833984 7.84568 1.18258 8.54067 1.87978C9.23564 2.57697 9.58313 3.4228 9.58313 4.41728V6.41728H10.2434C10.6131 6.41728 10.9289 6.54813 11.1906 6.80984C11.4523 7.07153 11.5831 7.38726 11.5831 7.75703V15.2442C11.5831 15.6139 11.4522 15.9296 11.1903 16.1913C10.9285 16.453 10.6125 16.5839 10.2425 16.5839H1.75034ZM1.75625 15.5006H10.2434C10.3182 15.5006 10.3796 15.4765 10.4277 15.4285C10.4758 15.3804 10.4998 15.3189 10.4998 15.2442V7.75703C10.4998 7.68224 10.4758 7.6208 10.4277 7.57271C10.3796 7.52463 10.3182 7.50059 10.2434 7.50059H1.75625C1.68146 7.50059 1.62002 7.52463 1.57194 7.57271C1.52386 7.6208 1.49982 7.68224 1.49982 7.75703V15.2442C1.49982 15.3189 1.52386 15.3804 1.57194 15.4285C1.62002 15.4765 1.68146 15.5006 1.75625 15.5006ZM6.00423 12.7922C6.36454 12.7922 6.66915 12.6663 6.91807 12.4144C7.167 12.1625 7.29146 11.8565 7.29146 11.4962C7.29146 11.1359 7.16553 10.8313 6.91365 10.5823C6.66178 10.3334 6.35569 10.2089 5.9954 10.2089C5.63509 10.2089 5.33048 10.3349 5.08157 10.5868C4.83264 10.8386 4.70817 11.1447 4.70817 11.505C4.70817 11.8653 4.83411 12.1699 5.08598 12.4188C5.33786 12.6678 5.64394 12.7922 6.00423 12.7922ZM3.49982 6.41728H8.49982V4.41728C8.49982 3.72283 8.25676 3.13255 7.77065 2.64644C7.28454 2.16033 6.69426 1.91728 5.99982 1.91728C5.30537 1.91728 4.71509 2.16033 4.22898 2.64644C3.74287 3.13255 3.49982 3.72283 3.49982 4.41728V6.41728Z" fill="#003669"/>
</svg>
