<svg width="40" height="41" viewBox="0 0 40 41" fill="none" xmlns="http://www.w3.org/2000/svg">
<mask id="mask0_3018_35641" style="mask-type:alpha" maskUnits="userSpaceOnUse" x="0" y="0" width="40" height="41">
<rect y="0.5" width="40" height="40" fill="#D9D9D9"/>
</mask>
<g mask="url(#mask0_3018_35641)">
<path d="M4.06951 35.5004C3.80101 35.5004 3.5635 35.4368 3.35697 35.3095C3.15044 35.1822 2.98982 35.0143 2.87509 34.806C2.75162 34.6004 2.6837 34.3778 2.67134 34.1379C2.65901 33.8981 2.72693 33.6579 2.87509 33.4171L18.7918 5.91711C18.9399 5.67636 19.1181 5.50043 19.3265 5.38932C19.5348 5.27821 19.7593 5.22266 20.0001 5.22266C20.2408 5.22266 20.4654 5.27821 20.6737 5.38932C20.8821 5.50043 21.0603 5.67636 21.2084 5.91711L37.1251 33.4171C37.2732 33.6579 37.3411 33.8981 37.3288 34.1379C37.3165 34.3778 37.2486 34.6004 37.1251 34.806C37.0104 35.0143 36.8497 35.1822 36.6432 35.3095C36.4367 35.4368 36.1992 35.5004 35.9307 35.5004H4.06951ZM20.1161 30.5838C20.511 30.5838 20.8404 30.4502 21.1043 30.1831C21.3681 29.9159 21.5001 29.5849 21.5001 29.19C21.5001 28.7951 21.3665 28.4658 21.0994 28.2019C20.8322 27.938 20.5012 27.806 20.1063 27.806C19.7114 27.806 19.382 27.9396 19.1182 28.2067C18.8543 28.4739 18.7223 28.8049 18.7223 29.1998C18.7223 29.5947 18.8559 29.9241 19.1231 30.1879C19.3902 30.4518 19.7212 30.5838 20.1161 30.5838ZM20.1161 25.8338C20.511 25.8338 20.8404 25.7007 21.1043 25.4345C21.3681 25.1683 21.5001 24.8384 21.5001 24.4449V18.2227C21.5001 17.8291 21.3665 17.4993 21.0994 17.2331C20.8322 16.9669 20.5012 16.8338 20.1063 16.8338C19.7114 16.8338 19.382 16.9669 19.1182 17.2331C18.8543 17.4993 18.7223 17.8291 18.7223 18.2227V24.4449C18.7223 24.8384 18.8559 25.1683 19.1231 25.4345C19.3902 25.7007 19.7212 25.8338 20.1161 25.8338Z" fill="#F5841F"/>
</g>
</svg>
