<svg width="40" height="40" viewBox="0 0 40 40" fill="none" xmlns="http://www.w3.org/2000/svg">
<g clip-path="url(#clip0_2514_28553)">
<rect width="40" height="40" rx="20" fill="white"/>
<g clip-path="url(#clip1_2514_28553)">
<mask id="mask0_2514_28553" style="mask-type:luminance" maskUnits="userSpaceOnUse" x="0" y="0" width="40" height="40">
<path d="M40 0H0V40H40V0Z" fill="white"/>
</mask>
<g mask="url(#mask0_2514_28553)">
<path d="M40 0H0V40H40V0Z" fill="white"/>
<path d="M40 0.00732422H0V40.0073H40V0.00732422Z" fill="#E6E4DF"/>
</g>
<path d="M27.1777 12.8225C27.0279 12.6716 26.8403 12.5635 26.6346 12.5094C26.4289 12.4553 26.2125 12.4573 26.0077 12.515L12.0352 16.4525C11.8016 16.5207 11.5941 16.6579 11.4398 16.846C11.2855 17.0342 11.1916 17.2646 11.1706 17.507C11.1495 17.7495 11.2021 17.9926 11.3216 18.2046C11.4411 18.4166 11.6219 18.5875 11.8402 18.695L18.2677 21.7325L21.3052 28.16C21.4027 28.3639 21.5558 28.5362 21.7469 28.6569C21.9379 28.7777 22.1592 28.842 22.3852 28.8425H22.4902C22.7345 28.8237 22.9671 28.7301 23.1563 28.5744C23.3455 28.4188 23.4822 28.2086 23.5477 27.9725L27.4852 13.9925C27.543 13.7878 27.5449 13.5713 27.4909 13.3656C27.4368 13.1599 27.3287 12.9724 27.1777 12.8225ZM22.3927 27.6425L19.4377 21.41L22.5352 18.3125C22.5955 18.2579 22.644 18.1917 22.6778 18.1178C22.7117 18.0439 22.7302 17.9639 22.7322 17.8826C22.7342 17.8014 22.7196 17.7206 22.6895 17.6451C22.6593 17.5696 22.6141 17.5011 22.5566 17.4436C22.4991 17.3861 22.4306 17.3409 22.3551 17.3108C22.2797 17.2806 22.1988 17.2661 22.1176 17.2681C22.0363 17.2701 21.9563 17.2886 21.8824 17.3224C21.8085 17.3563 21.7423 17.4048 21.6877 17.465L18.5902 20.5625L12.3577 17.6075L26.3302 13.67L22.3927 27.6425Z" fill="white"/>
</g>
</g>
<defs>
<clipPath id="clip0_2514_28553">
<rect width="40" height="40" rx="20" fill="white"/>
</clipPath>
<clipPath id="clip1_2514_28553">
<rect width="40" height="40" fill="white"/>
</clipPath>
</defs>
</svg>
